<?xml version="1.0" encoding="utf-8"?>
<!-- Generator: Adobe Illustrator 24.3.0, SVG Export Plug-In . SVG Version: 6.00 Build 0)  -->
<svg version="1.1" id="Layer_1" xmlns="http://www.w3.org/2000/svg" xmlns:xlink="http://www.w3.org/1999/xlink" x="0px" y="0px"
	 viewBox="0 0 595.28 595.28" style="enable-background:new 0 0 595.28 595.28;" xml:space="preserve">
<style type="text/css">
	.st0{fill:url(#SVGID_1_);}
	.st1{fill:url(#SVGID_2_);}
	.st2{fill:url(#SVGID_3_);}
	.st3{opacity:0.5;}
	.st4{fill:url(#SVGID_4_);}
	.st5{fill:url(#SVGID_5_);}
	.st6{fill:url(#SVGID_6_);}
	.st7{fill:url(#SVGID_7_);}
	.st8{fill:url(#SVGID_8_);}
	.st9{fill:url(#SVGID_9_);}
	.st10{fill:url(#SVGID_10_);}
</style>
<linearGradient id="SVGID_1_" gradientUnits="userSpaceOnUse" x1="309.1144" y1="271.1834" x2="353.1442" y2="348.8358" gradientTransform="matrix(0.9993 0.0379 -0.0379 0.9993 12.1353 -9.4377)">
	<stop  offset="0" style="stop-color:#4D70CE"/>
	<stop  offset="0.6692" style="stop-color:#00DAC9"/>
</linearGradient>
<path class="st0" d="M336.41,414.04c59.22,23.09,73.12,104.44,73.12,104.44s77.93-223.92-95.88-261.46
	C357,337.86,391.7,420.2,391.7,420.2s-34.04-68.95-58.88-109.06c-11.06-17.86-21.32-36.59-30.36-54.27
	C295.49,272.2,250,380.34,336.41,414.04z"/>
<linearGradient id="SVGID_2_" gradientUnits="userSpaceOnUse" x1="310.6267" y1="243.1515" x2="413.0958" y2="140.6824" gradientTransform="matrix(0.9993 0.0379 -0.0379 0.9993 12.1353 -9.4377)">
	<stop  offset="0" style="stop-color:#4D70CE"/>
	<stop  offset="0.6692" style="stop-color:#00DAC9"/>
</linearGradient>
<path class="st1" d="M447.88,173.77c2.7-63.5,75.17-102.97,75.17-102.97s-237.09-1.3-216.39,175.3
	c62.47-67.17,129.16-126.64,129.16-126.64s-54.23,54.52-84.15,91c-13.32,16.25-27.73,32.01-41.53,46.28
	C326.9,258.37,443.94,266.43,447.88,173.77z"/>
<linearGradient id="SVGID_3_" gradientUnits="userSpaceOnUse" x1="303.6217" y1="247.9545" x2="186.7428" y2="219.9356" gradientTransform="matrix(0.9993 0.0379 -0.0379 0.9993 12.1353 -9.4377)">
	<stop  offset="0" style="stop-color:#4D70CE"/>
	<stop  offset="0.6692" style="stop-color:#00DAC9"/>
</linearGradient>
<path class="st2" d="M168.05,168.01c-57.07,27.97-126.38-16.84-126.38-16.84S153.81,360.07,299.06,257.5
	c-88.85-22.78-172.96-52.95-172.96-52.95s73.81,21.59,120.15,30.44c20.64,3.94,41.37,9.06,60.5,14.37
	C300.17,233.86,251.33,127.19,168.05,168.01z"/>
<g class="st3">
	
		<linearGradient id="SVGID_4_" gradientUnits="userSpaceOnUse" x1="282.5414" y1="275.1316" x2="282.3251" y2="251.7763" gradientTransform="matrix(0.9993 0.0379 -0.0379 0.9993 12.1353 -9.4377)">
		<stop  offset="0" style="stop-color:#00A1CD"/>
		<stop  offset="1" style="stop-color:#00DAC9"/>
	</linearGradient>
	<path class="st4" d="M270.47,249.88c-0.1,0.9-0.21,1.81-0.24,2.73c-0.27,7,1.51,13.58,4.74,19.24c7.92-3.88,15.95-8.61,24.1-14.36
		C289.44,255.03,279.88,252.48,270.47,249.88z"/>
	
		<linearGradient id="SVGID_5_" gradientUnits="userSpaceOnUse" x1="287.1663" y1="252.8597" x2="286.8885" y2="222.854" gradientTransform="matrix(0.9993 0.0379 -0.0379 0.9993 12.1353 -9.4377)">
		<stop  offset="0" style="stop-color:#00A1CD"/>
		<stop  offset="1" style="stop-color:#00DAC9"/>
	</linearGradient>
	<path class="st5" d="M291.91,220.87c-8.68,3.8-15.6,10.9-19.13,19.79c11.63,2.72,23.07,5.68,33.97,8.71
		C304.94,245.1,299.94,233.95,291.91,220.87z"/>
</g>
<g class="st3">
	
		<linearGradient id="SVGID_6_" gradientUnits="userSpaceOnUse" x1="325.346" y1="285.4562" x2="325.0895" y2="257.756" gradientTransform="matrix(0.9993 0.0379 -0.0379 0.9993 12.1353 -9.4377)">
		<stop  offset="0" style="stop-color:#00A1CD"/>
		<stop  offset="1" style="stop-color:#00DAC9"/>
	</linearGradient>
	<path class="st6" d="M313.65,257.02c4.71,8.79,9.31,17.59,13.79,26.3c6.17-4.44,10.89-10.77,13.29-18.2
		C332.46,261.89,323.48,259.14,313.65,257.02z"/>
	
		<linearGradient id="SVGID_7_" gradientUnits="userSpaceOnUse" x1="304.3279" y1="294.4541" x2="303.9994" y2="258.9748" gradientTransform="matrix(0.9993 0.0379 -0.0379 0.9993 12.1353 -9.4377)">
		<stop  offset="0" style="stop-color:#00A1CD"/>
		<stop  offset="1" style="stop-color:#00DAC9"/>
	</linearGradient>
	<path class="st7" d="M291.56,286.96c4.12,1.85,8.64,2.98,13.43,3.16c4.97,0.19,9.74-0.64,14.11-2.29
		c-5.88-10.43-11.48-20.87-16.64-30.97C300.55,261.07,295.75,272.26,291.56,286.96z"/>
</g>
<g class="st3">
	
		<linearGradient id="SVGID_8_" gradientUnits="userSpaceOnUse" x1="313.0455" y1="249.3939" x2="312.7656" y2="219.1607" gradientTransform="matrix(0.9993 0.0379 -0.0379 0.9993 12.1353 -9.4377)">
		<stop  offset="0" style="stop-color:#00A1CD"/>
		<stop  offset="1" style="stop-color:#00DAC9"/>
	</linearGradient>
	<path class="st8" d="M327.18,224.44c-5.52-3.9-12.19-6.32-19.45-6.6c-0.73-0.03-1.44,0.01-2.16,0.03
		c-0.39,8.87-0.08,18.25,1.09,28.22C313.48,238.76,320.35,231.53,327.18,224.44z"/>
	
		<linearGradient id="SVGID_9_" gradientUnits="userSpaceOnUse" x1="324.089" y1="259.9919" x2="323.8224" y2="231.1945" gradientTransform="matrix(0.9993 0.0379 -0.0379 0.9993 12.1353 -9.4377)">
		<stop  offset="0" style="stop-color:#00A1CD"/>
		<stop  offset="1" style="stop-color:#00DAC9"/>
	</linearGradient>
	<path class="st9" d="M342.5,255.36c0.35-9.27-2.85-17.84-8.35-24.45c-7.99,8.97-16.1,17.65-24.01,25.83
		c4.61,0.45,16.83,1.38,32.19,0.57C342.38,256.66,342.47,256.02,342.5,255.36z"/>
</g>
<linearGradient id="SVGID_10_" gradientUnits="userSpaceOnUse" x1="304.3146" y1="285.2344" x2="303.8369" y2="233.644" gradientTransform="matrix(0.9993 0.0379 -0.0379 0.9993 12.1353 -9.4377)">
	<stop  offset="0" style="stop-color:#00A1CD"/>
	<stop  offset="1" style="stop-color:#00DAC9"/>
</linearGradient>
<path class="st10" d="M330.46,254.9c-0.51,13.31-11.71,23.69-25.02,23.19c-13.31-0.51-23.69-11.7-23.19-25.02
	c0.51-13.31,11.7-23.69,25.02-23.18C320.59,230.39,330.97,241.59,330.46,254.9z"/>
</svg>
