<svg xmlns="http://www.w3.org/2000/svg" width="1119.785" height="557.9" viewBox="0 0 1119.785 557.9">
  <defs>
    <style>
      .cls-1 {
        fill: #fff; <!--old color : #f7f7f7-->
        fill-rule: evenodd;
      }
    </style>
  </defs>
  <path id="bg_world-map.svg" class="cls-1" d="M1101.82,1454.99s2.2-4.74,2.2-4.96c0-1.21-1.66-3.97-1.66-5.73,0-5.4,3.97-5.07,7.16-6.95,2.53-1.43,5.94-5.62,7.7-7.38,0.55-.55.22-2.42,0.67-3.31,3.74,0.45,3.41,7.61,4.51,10.47v1.66a10.134,10.134,0,0,0-1.87-.56c0,8.05-2.53,13.56-4.96,19.85-1.97,4.96-2.96,12.34-9.68,12.34-2.75,0-5.17-3.2-5.17-6.06,0-1.44.33-1.99,0.22-2.76-1.32-.99-1.32-2.75-1.32-4.41C1099.62,1456.75,1101.6,1454.99,1101.82,1454.99Zm-68.23-174.69H1036c0,1.54,1.22,1.88,1.66,2.53,0.99,1.33,3.52.45,5.28,1.11,3.52,1.32,8.48,2.98,12.33,2.98,3.51,0,4.62-1.66,8.03-1.66,2.09,0,3.3,1.44,5.73,1.44,1.64,0,1.64-.56,3.08-0.89,0.76,1.99,2.2,3.42,2.2,5.52,0,0.98-1.77,5.07-2.2,6.39-2.32-.33-4.19-5.29-6.06-7.17v1.88l10.46,18.51c-0.55,2.31,2.75,7.16,4.4,8.49v5.84c1.1,2.97,3.3,2.97,4.95,5.18,1.98,2.64.77,5.51,2.75,7.5,1.76,1.76,2.97,1.87,4.95,3.3,1.77,1.32,2.71,5.9,6.34,5.9,0,1.87,1.04,2.14-.06,3.47,1.43,1.1,2.86,4.63,4.73,4.63,1.76,0,1.87-1.44,3.3-1.88,1.65-.55,2.75.22,4.4,0,4.18-.66,8.15-2.31,12.11-3.3a3.74,3.74,0,0,1,.77,1.65c0,6.28-4.95,14.44-7.71,18.18-3.3,4.41-4.72,8.38-8.8,11.58-7.26,5.73-15.08,7.49-17.83,17.3-0.77,2.75-3.63,3.52-3.63,6.62,0,3.41.88,4.95,0.88,8.26,0,3.75,4.07,5.62,4.07,7.71a3.783,3.783,0,0,1-.77,1.65v2.76c0,1.77-.33,3.86-0.33,6.95a2.82,2.82,0,0,1,.89,2.2c0,8.6-14.53,7.61-15.75,14.88-1.53.22-3.3,2.09-3.3,3.3,0,2.43,3.09,4.08,3.09,7.39,0,1.76-.22,5.4-0.89,6.39-0.65.88-2.53,0.44-3.3,0.77-2.64,1.33-4.18,2.42-5.5,5.18a2.737,2.737,0,0,1,1.65,2.32c0,3.08-3.08,5.5-4.4,6.83-2.42,2.42-2.64,4.96-4.4,7.17-2.75,3.52-3.97,6.61-8.47,8.81-1.88.88-4.62,0-4.96,1.99-1.43.11-2.31,0.76-3.3,0.76-1.21,0-1.87-1.1-3.08-1.1-4.62,0-7.38,3.31-11.55,3.31a3.74,3.74,0,0,1-3.53-2.21,2.344,2.344,0,0,0-1.1.56,9.055,9.055,0,0,0-1.98-5.51,4.081,4.081,0,0,0,1.43-2.98c0-1.76-3.08-5.07-3.63-6.06-3.97-6.73-9.03-13.23-9.03-22.93v-2.97c0-1.55-1.32-2.1-2.2-3.64-3.08-5.18-6.38-9.36-6.38-16.53,0-7.72,6.93-9.59,6.93-15.43,0-2.75-1.09-3.86-1.43-6.28a33.832,33.832,0,0,0-2.75-9.15c-0.87-2.2-.44-4.74-1.87-6.61-2.862-3.64-9.132-7.49-9.132-12.67a8.33,8.33,0,0,1,2.53-4.41,2.039,2.039,0,0,1,0-1.66c0-1.32,0-4.63,1.1-5.51-1.206-2.43-3.189-4.63-6.931-4.63h-4.621c-3.3,0-4.074-6.39-8.586-6.39-5.5,0-9.571,2.54-13.755,3.86-1.651.55-2.2,1.98-3.853,1.98s-4.4-1.65-6.6-1.65c-4.292,0-6.162,2.2-10.454,2.2a7.039,7.039,0,0,1-3.3-.88c-3.084-2.31-9.465-6.06-11.778-9.59-2.089-3.19-2.75-5.84-5.5-8.04-0.771-.55-6.6-5.73-6.6-6.18-0.548-.66-0.88-0.87-1.43-1.54h0.332c0-1.65-.553-2.53-0.553-3.53,0-1.54-.88-2.09-1.65-3.63,2.421-1.21,4.621-7.16,4.621-9.92,0-4.85-2.2-7.94-2.2-12.34,0-2.21,2.531-3.53,3.083-5.3a59.277,59.277,0,0,1,7.373-13.77c1.539-2.09,4.4-1.87,6.381-2.98,1.653-.99,4.4-3.19,4.955-4.96,1.32-4.07-.332-5.84,1.869-8.59,2.861-3.64,6.6-7.06,9.355-10.47h-0.222c0.881-1.1,1.1-2.1,2.2-2.98a14.883,14.883,0,0,0,9.356,2.76c2.309,0,2.75-1.33,4.071-1.98,4.292-2.1,12.438-5.18,17.39-5.18,1.538,0,2.969,1.1,3.851,1.1,1.208,0,2.973-1.66,4.623-1.66,1.428,0,2.088.77,3.3,0.77,2.2,0,2.308-1.65,4.4-1.65s1.539,1.98,3.3,1.98c0.662,0,.992-0.54,1.652-0.66-0.11,1.66-1.652,1.43-1.652,2.87,0,0.99,1.432,1.43,1.432,2.43,0,1.64-1.432,2.53-1.432,4.18a5.646,5.646,0,0,0,4.952,5.18h3.09c7.14,0,9.68,8.82,17.82,8.82a2.615,2.615,0,0,0,2.2-1.65v-2.21c0-3.52,2.64-3.52,6.06-4.62Zm40.72,10.7-2.43-5.85c0-.77.77-0.77,0.89-1.21,0.77-2.42,1.1-3.64,1.76-5.84s2.86-2.76,2.86-5.29c0-1.88-.55-3.42-0.55-4.74a1.449,1.449,0,0,1,.77-1.1v-1.1c-0.88.32-1.22,0.99-2.09,0.99a2.952,2.952,0,0,1-2.2-.88c-1.77,1.32-2.32,2.75-5.51,2.75-2.31,0-3.19-2.75-5.5-2.75s-1.87,2.53-3.85,2.53c-2.09,0-3.19-2.98-5.28-1.99h-1.22a1.951,1.951,0,0,0,.89-0.65c-0.67-.66-3.86-2.32-2.76-3.42-0.99-1.44-2.2-1.32-3.73-2.09,1.1-1.11,2.3-.88,2.3-2.98a2.763,2.763,0,0,1,0-1.32c-0.77,0-1.87.11-1.87-.56,0-3.41,7.93-2.75,9.9-3.74-0.21-.89-0.87-0.56-0.87-1.32,0-1,2.08-.56,2.64-0.56h3.41c1.32,0,3.3-1.43,4.51-2.2,1.43-.88,4.51-0.99,6.39-0.99,2.97,0,2.86,1.65,5.39,1.65,0,1.33,4.29,2.1,5.5,2.21h6.27c2.98,0,4.3-2.98,7.6-2.98,3.62,0,3.41,2.1,4.51,4.41a9.2,9.2,0,0,0,2.64,1.76c1.98,0.66,2.42,3.97,5.5,3.97,2.43,0,2.31-1.99,3.96-2.53a4.4,4.4,0,0,1,1.54-.34c0.34,0.66.34,1.55,0.77,1.99a1.341,1.341,0,0,0,0,.66c0,1.1.89,0.99,1.44,1.88,0.87,1.31-.12,2.2.55,3.52,0.55,1.21,1.98.55,3.19,0.77,0.99,0.23,1.21,1.33,1.87,1.98,0.88,0.88,3.63.67,5.06,0.67a22.173,22.173,0,0,0,5.17-.67v-1.98c0-.99,1.32-0.99,2.31-1.32,1.33-.44.99-0.88,2.09-1.33,2.1-.76,3.32-0.28,4.97-1.49,2.48,1.38,3.84,1.49,6.15,2.27,2.65,0.88,3.53,3.3,6.72,3.3,0.11,0.66.76,0.89,0.88,1.32,0.54,1.66-.12,3.31.54,4.3-0.77.45-2.52,4.41-2.52,4.63,0,0.34.33,0.89,0,1.1a5.879,5.879,0,0,1,.43,1.33v3.42c0.44,0.99.12,1.64,0.56,2.64s2.64,0,2.64,1.87c0,2.32-2.42,1.88-2.42,3.86,0,1.32.99,1.32,1.31,1.98,1.77,3.64,5.62,4.19,5.62,8.93-2.87.66-4.73,1.22-4.73,4.3,0,0.77.44,1.32,0.44,1.87a0.918,0.918,0,0,1-.55,0c-2.09,0-6.94-1.32-9.91-1.32a24.277,24.277,0,0,1-3.85-.99c-1.1-1.1-1.1-4.41-3.41-4.41-1.21,0-1.66,1-2.31,1.65h-5.5c-1.77-.55-2.65-1.98-3.75-3.08-1.32-1.33-3.08-.66-4.29-1.88-0.66-.66-0.33-1.54-0.55-1.98-1.21-2.42-3.63-5.84-6.71-5.84-1.55,0-2.21,1.98-2.21,3.52a8.694,8.694,0,0,0,.23,2.54c0.66,2.65,3.74,7.38,6.28,7.93,0,1.21.65,1.55,0.76,2.54,1.32-.33,1.1-1.76,2.2-1.98a4.512,4.512,0,0,1,.11,1.21c0,1.32-.77,2.2-0.77,3.53,0,1.54,2.86,2.31,4.51,2.31,7.37,0,7.93-4.52,11.89-7.49v4.07c1.54,3.2,3.63,3.76,6.82,4.75,1.21,0.32,1.32,2.2,2.09,2.63v-0.1c0.55,0.99,2.1.77,2.1,1.77,0,2.53-3.2,3.41-3.2,6.05-1.65,0-2.75.45-3.19,1.77s-0.33,3.2-1.65,3.2c-1.65,0-1.54,3.19-3.19,3.19-0.99,0-3.08,1.87-3.08,3.2-2.98.54-9.68,1.76-9.68,4.18a1.6,1.6,0,0,0,.43.99,48.278,48.278,0,0,1-8.58,2.65c-1.32.33-5.72,3.41-7.15,4.08h-3.42c-1.87,1.32-2.17,2.23-4.48,2.23l-0.69.41a28.9,28.9,0,0,1-3.43-1.52c-0.28-.13.59-0.14-0.14-1.23a10.072,10.072,0,0,1-1.93-5.62c-1.21-.12-0.36-2.21-0.13-3.2,0.55-2.43-1.3-3.42-2.51-4.63-1.32-1.32-4.37-5.13-4.37-7.77-3.85-.88-4.77-3.14-4.77-7.33,0-2.53-1.43-3.08-1.87-5.18h0a14.737,14.737,0,0,1-1.43-1.43c-0.44-.44-1.87-0.22-2.2-0.55-0.66-.66-0.44-2.31-0.66-2.97a10.009,10.009,0,0,0-1.54-2.65c-1.32-1.98-2.42-3.64-3.64-5.51a24.161,24.161,0,0,1-1.86-2.65c0-1.1.77-3.63,0.77-5.29V1291Zm146.14,73.28c0,1.99-1.42,4.52-3.51,4.52a3.016,3.016,0,0,1-2.75-3.09c0-3.19,1.53-5.62,1.53-8.92C1217.27,1359.43,1220.45,1360.76,1220.45,1364.28Zm-28.27-38.57-0.51-.47c0,0.33.17,1.24,0.17,1.57,0,2.1,1.21,4.19,1.87,6.39,0.77,2.43,2.76,6.07,3.3,7.72a11.955,11.955,0,0,0,1.33,3.53c0.88,1.32.33,2.75,1.21,4.51,0.44,0.89,1.98,1.99,2.42,3.53,0.77,2.31,1.98,4.52,2.86,7.17a1.435,1.435,0,0,0,.99,1.1,1.346,1.346,0,0,0,1.65,1.1c0.88,0,.99-1.32,1.43-2.2,0.55-1.1.77-.67,2.09-1.33,0.88-.44.55-3.3,2.09-3.74,0.33-.12,1.11-0.12,1.11-0.45l0.54-.11-0.54-2.86c0-2.09,1.31-3.86,1.31-6.62,0-1.76-.77-2.86-0.77-4.84,0-2.32,2.32-2.65,4.3-3.31,0.77-.22,1.98-1.54,2.85-2.43,2.1-2.09,4.08-4.3,6.28-6.5,1.76-1.76,4.95-2.31,6.93-4.3,0.99-.99.89-2.2,1.32-3.74,0.34-.99,2.64-1.1,3.41-2.76,0.89,0.56.89,1.1,2.65,1.1,2.86,0,5.94-.66,5.94-3.96,1.65,0.33,3.53.99,3.96,2.53,0.45,1.32.22,3.09,1.1,4.41a14.238,14.238,0,0,0,3.63,3.53,26.129,26.129,0,0,1,3.2,5.84c0.11,0.55.66,0.88,0.66,1.43,0,1.21-.55,1.88-0.55,3.31s0.11,2.75,1.75,2.75c3.09,0,3.86-3.19,5.73-5.07,0.66,0.66.33,1.1,0.99,1.77,0.22,0.22,1.1,0,1.43.55,1.1,1.65-.77,4.96.66,4.96,0,3.53,2.86,6.39,2.86,11.24,0,1.21-.88,3.74,0,4.19,0.89-1.88,1.21-3.09,2.2-5.18,0.12-.33.89-0.67,0.89-1.22,0-.88-1.55-6.06-2.32-6.83s-1.97-1.32-1.97-2.54c0-.33.1-0.65,0.1-0.99v0.11a4.52,4.52,0,0,0,1.1-2.31c0-1.32-.1-3.64-0.88-4.85-0.66-.99-2.09-0.99-2.09-2.97a6.276,6.276,0,0,1,1.77-4.63c0.54-.56,1.86-0.33,2.74-0.88,2.65-1.77,4.29-2.65,6.49-5.96-0.65,0-.99.23-1.75,0.23-2.2,0-3.53-2.43-3.53-4.63-1.21-.23-1.43-3.31-2.31-3.31s-1.43.55-2.31,0.55c-0.33,0-.44-0.77-0.44-1.1,0-4.08,2.86-4.19,2.86-8.6,0-2.31-1.54-3.09-2.53-4.73-2.75-1.33-5.06-1.11-5.94-4.64h-0.66l-1,.99c-1.31.45-2.74-.76-3.62,0.12a9.115,9.115,0,0,1-1.32,1.32c-0.77.44-4.41,3.52-5.95,3.52-1.87,0-2.97-1.31-5.39-1.31-2.75,0-3.2,1.98-4.73,2.75-0.11-.77-0.55-2.43-1.1-2.43-0.67,0-.99.55-1.99,0.55h-4.61c-2.54,0-3.53-1.65-5.18-2.75-0.55-.33-1.43.55-1.76-0.23-0.44-.87-0.44-1.65-1.32-2.09-1.65-.77-2.75-0.33-4.07-1.65s-2.53-.66-4.95-1.21c-1.99-.45-2.54-1.87-4.52-2.54-0.44-.11-1.54,0-1.76-0.66-0.44-1.32-.32-2.2-0.66-3.52v-1c1.21,0,2.53.22,2.53-1.21,0-1.21-1.65-1.54-1.65-2.75,0-2.87,4.07-2.43,4.07-5.4,0-1.11-2.53-3.09-3.51-3.09-1.88,0-2.65,1.65-4.52,1.98-2.09-.66-3.3-0.66-4.95-2.31-0.66-.66-0.11-2.1-1.32-2.43-1.65-.54-2.65,0-2.65-1.87a14.318,14.318,0,0,0-3.74-.33c-2.19,0-3.08,1.87-5.61,1.87s-0.11-5.72-2.31-5.72c-2.31,0-2.75,2.64-3.75,2.64a1.427,1.427,0,0,1-.65,0,5.764,5.764,0,0,1-4.74,2.75c-0.88,0-1.21-1.21-2.08-1.21-0.66,0-3.31.88-3.53-.44-0.99,0-.66-0.44-1.76-0.44-2.75,0-2.97,2.86-4.84,4.74-0.88.88-2.2,0.88-3.09,1.77-0.65.65-1.21,1.75-2.52,1.75-1.11,0-1.65-.88-2.76-0.88-0.32,0-.32.55-0.55,0.66-0.77.45-2.52,4.41-2.52,4.63,0,0.34.33,0.89,0,1.1a5.879,5.879,0,0,1,.43,1.33v3.42c0.44,0.99.12,1.64,0.56,2.64s2.64,0,2.64,1.87c0,2.32-2.42,1.88-2.42,3.86,0,1.32.99,1.32,1.31,1.98,1.77,3.64,5.62,4.19,5.62,8.93-2.87.66-4.73,1.22-4.73,4.3,0,0.77.44,1.32,0.44,1.87l3.85-.22a3.909,3.909,0,0,1,.99-0.77l2.86,0.77c1.1,0,1.43-.88,2.75-0.88a11.147,11.147,0,0,1,3.31.11c1.31,0.44,1.98,2.98,2.86,4.41,1.1,1.66,4.28,3.86,6.49,3.86a9.888,9.888,0,0,1,2.53.22c-0.45.44-.55,1.43-1.43,1.65-0.99.34-1.76-.22-2.75,0.44,1.65,1.65,2.97,5.07,6.38,5.07,2.86,0,2.97-3.74,4.4-5.17h0.88c0,0.43-.66,1.2-0.66,1.53,0,1.44,1.1,2.76,1.1,4.52,0,1.44-.55,1.66-0.55,3.31Zm85.84,62.49c-0.34,0-.11-0.66-0.34-0.99a16.892,16.892,0,0,0-1.75-.55c-0.56-.34-1.33-2.98-1.55-3.86-0.77-2.53-3.3-2.09-4.07-3.63-0.66-1.33-.99-1.99-1.65-3.31-0.44-.99-1.54-0.78-2.53-0.99-0.88-.23-2.64-3.31-2.97-4.41v-0.89h0.66c1.1,0,1.32.56,2.2,1h3.63c2.42,0.77,3.19,2.42,4.08,4.19,0.21,0.55.76,0.43,1.2,0.55,1.65,0.55,2.42,1.87,3.52,2.97,2.1,2.1,3.3,3.53,6.39,4.52,1.65,0.55,3.52,1.1,3.52,2.76,0,0.11-.22.43-0.22,0.55h0.88a1.479,1.479,0,0,1,.99.99l-0.44,1.1c0,1.43.88,1.77,2.09,1.77,0,2.31,1.32,2.97,2.53,4.18,0.66,0.66,2.21.99,2.21,2.09v4.75c-1.11.44-.56,1.98-0.56,3.08,0,1.21-2.2,1.54-2.97,1.54-0.55,0-2.53-2.86-2.64-2.97-2.09-2.1-4.07-2.98-6.05-4.96a21.05,21.05,0,0,1-4.29-6.72C1279.66,1390.4,1278.35,1388.2,1278.02,1388.2Zm37.3,9.48c-0.21,0-.11-1.21-0.21-1.66-0.89-.11-1.44.56-2.31,0.56-4.08,0-2.32-3.86-3.75-6.06,0-.12.11-0.45,0.11-0.55a1.629,1.629,0,0,0-1.43-.67c-0.55-.11-1.65-4.08-1.65-4.63,0-1.87,2.31-1.1,3.85-1.1,3.41,0,2.97-3.42,4.51-4.96,0.77-.77,1.87-0.77,3.08-0.99,1.66-.33,1.66-1.43,2.53-2.31-0.43-.44.77-1.33,0.77-1.33,0.67-.33.56-0.55,1.1-0.77a2.545,2.545,0,0,0,.67-0.88c0.99-.99,3.52-0.44,3.96-1.33,0.88-1.75,3.3-5.94,5.06-5.94,1.87,0,1.65,1.1,1.65,2.75,0,2.32,4.63.99,4.63,3.19,0,1-2.43.34-2.43,1.33a0.6,0.6,0,0,0,.44.55,20.253,20.253,0,0,1-3.19,1.54c0.11,0.34.33,0.66,0.44,0.99a1.1,1.1,0,0,0-.77.78c0,1.65,2.97,7.16,4.95,7.16-0.33,1.65-1.21,1.1-2.42,1.1a3.908,3.908,0,0,0-1.1.22l-0.55,1.11c-0.55,2.42-1.43,3.08-1.43,4.95a3.464,3.464,0,0,0-2.42,2.54c0,0.77.55,0.99,0.55,1.54,0,0.89-1.32,2.54-1.32,3.75-1.76.44-1.98,1.76-3.42,1.76a1.393,1.393,0,0,1-1.42-1.54c-1.77-.44-2.98-1.76-4.85-1.76-0.87,0-1.43,1.21-2.75,1.21C1315.87,1398.23,1315.65,1397.68,1315.32,1397.68Zm29.39-7.28c-0.44.56-.55,1.11-1.22,1.11-1.65,0-2.31-2.1-2.31-3.75,0-2.2,1.77-1.77,3.63-1.77,1.88,0,2.65-.43,4.19-0.43,1.43,0,2.42.76,3.85,0.76,2.2,0,2.97-1.87,3.3-3.52a1.052,1.052,0,0,0,.55-0.89h-0.66a31.069,31.069,0,0,0-3.52,2.54h-0.88l-7.71-1.32c-2.85,0-4.17,3.64-4.17,6.28,0,0.66-.88,1.21-0.99,1.66-0.78,2.53-1.98,3.53-1.98,5.95,0,1.32,1.53,1.32,2.2,1.43v5.29a1.794,1.794,0,0,0,1.75,1.43c1.22,0,1.66-3.86,1.66-4.4,0-1.44-.99-2.21-0.99-3.64a1.576,1.576,0,0,1,1.65-1.33,2.314,2.314,0,0,0,.87,0l-0.44,2.32c0,1.43,1.77,1.98,1.77,3.41a3.051,3.051,0,0,1,0,1h1.43c0-1.22,2.42-1.1,2.42-2.32a3.184,3.184,0,0,1-1.54-1.98,2.478,2.478,0,0,1,.43-0.66c-0.65-.34-2.74-4.3-2.74-4.63,3.08,0,3.3-2.42,5.83-3.2v-0.88c-0.66-.11-6.49,1.66-6.6,1.98ZM1326,1414.65c-1.1,0-.99-0.77-2.31-0.77-0.33,0-.11.77,0,1.1-3.64-1.43-7.38-1.65-11.67-1.65-1.32,0-1.65-1.43-2.75-1.43a19.474,19.474,0,0,1-6.05-.78c-1.66-.55-3.31.56-4.4-0.55s-1.98-2.42-3.63-2.42c0.1-.33,2.08-2.32,2.74-2.32,0.33,0,.56.44,0.89,0.44,0.65,0,1.09-.66,1.76-0.66,3.3,0,4.73,3.53,8.35,3.53,1.66,0,1.99-1.65,3.31-1.65,2.2,0,2.97,1.98,4.96,1.98l3.3-.44h0.88c-0.11.55-3.86,0.88-4.08,0.77,1.21,1.21,2.64,1.43,4.62,1.43,0.67,0,.67.78,0.89,1,0.77,0.77,1.65-.12,2.64.21a13.607,13.607,0,0,1,1.76,1A3.139,3.139,0,0,1,1326,1414.65Zm20.8,0.67h-3.97c-0.76,0-2.42.1-2.42-1.11,0-.88,1.21-0.77,1.99-0.77,1.98,0,2.75.77,4.4,0.77s2.2-.66,3.19-1.1C1349.22,1414.54,1348.23,1414.87,1346.8,1415.32Zm-9.25-.12h-0.99l-0.87-.44c-1.11.44-1.55,1.1-2.65,1.1-0.88,0-2.2-.33-2.2-0.77,0-1.21.88-1.1,1.87-1.1a4.939,4.939,0,0,1,2.09.44c0-.33.11-0.55,0.11-0.88h2.64C1337.55,1414.43,1337.33,1414.98,1337.55,1415.2Zm3.96,4.74c-0.54,0-.66-1.1-0.66-1.43-1.09,0-2.86-.11-2.86-1.21,0-.89,1.33-0.66,2.1-0.66h1.09c0,1.53,1.65,1.2,1.65,2.53a1.053,1.053,0,0,1-.87.77h-0.45Zm-13.2-6.5h0.99c0.55,0,.55.55,1,0.77a1.205,1.205,0,0,1-1.11,1.11,1.077,1.077,0,0,1-.88-0.78v-1.1Zm28.17,3.41c-0.55,0,0,1.1-.33,1.44-0.54.55-2.42,1.87-3.63,1.87a0.964,0.964,0,0,1-.77-0.99c0-2.43,2.09-2.43,3.74-2.97a3.029,3.029,0,0,0,.55-1c1.1-1.1,5.94-1.54,6.93-.88C1361.88,1415.97,1358.24,1416.85,1356.48,1416.85Zm29.93-12.23c0.23,0.89.45,0.44,0.45,1.21a0.934,0.934,0,0,1-.88,1.1c0,1.1.21,2.32-.67,2.32a0.949,0.949,0,0,1-.65-0.88c0-1.11,1.1-1.22,1.1-1.87C1385.76,1405.72,1385.65,1404.73,1386.41,1404.62Zm-23.65-6.5a2.87,2.87,0,0,1-1.1,1.43,2.745,2.745,0,0,1-1.98-2.1C1359.68,1396.13,1362.76,1397.02,1362.76,1398.12Zm10.34-1.33c0.11,0.89,1.32,1.11,1.32,1.99,0,0.22-.44.22-0.66,0.22-1.54,0-2.31-1.1-3.85-1.1h-2.53a13.759,13.759,0,0,1-1.98-.45,1.46,1.46,0,0,1,.77-0.98h4.95c0.23,0.76.99,0.44,1.65,0.44Zm-8.03-9.91v-0.77a15.137,15.137,0,0,0,2.52-.22c-0.1-.89-0.87-1.1-0.87-1.66,0-.66,1.09-0.77,1.09-1.43-1.86-.44-2.63-1.32-2.85-2.87a2.18,2.18,0,0,0-.99,2.21c0,1.43.88,1.87,0.88,3.08v1.44c0,0.65.33,2.09,1.43,2.09C1365.73,1387.98,1365.5,1387.54,1365.07,1386.88Zm68.56,19.95c-0.88-1.11-2.86-.78-3.19-2.21h3.3a3.19,3.19,0,0,0,1.21-.33c1.65-.55,3.3-0.44,4.29-0.88,1.54-.77.89-3.2,2.42-3.2,0.67,0,1,.99,1,1.66,0,2.31-2.32,1.87-2.32,3.85-1.98.44-2.97,1.66-5.28,1.66a3.831,3.831,0,0,1-1.98-1.11Zm-27.51-12.02c1.32,1.32,5.28,2.76,8.03,2.76,1.33,0,1.99,1.54,3.3,1.54,0,0.88.88,0.99,1.43,1.1,3.52,1.1,3.41,4.08,6.06,5.4,1.1,0.55,3.41-.66,3.41,1.77,0,1.21-2.09.77-2.09,1.76,0,0.55,1.87,2.42,2.09,2.64,1.1,1.11.88,1.88,1.76,3.2a3.574,3.574,0,0,0,2.43,1.1,2.2,2.2,0,0,1,.87,1.22c0.22,0.54.88,0.11,1.32,0.22a2.164,2.164,0,0,1,1.11,1.32c0.21,0.55,1.86.33,2.2,0.44a2.5,2.5,0,0,0-1.44,1.77h-0.66a11.042,11.042,0,0,1-2.09-1.33h-2.86c-1.65-.33-4.18-1.55-4.18-2.76,0-.44-0.88-0.66-1.1-0.88-2.2-2.2-4.18-5.29-7.82-5.29-2.75,0-2.53,1.99-4.07,2.76,0.44,1.43-.55,1.87-0.55,2.65h-4.18c-2.86,0-3.63-3.42-6.5-3.42-0.44,0-1.64.11-1.64,0.66h-2.31c-0.78,0-1.77,0-1.77-.88,0-1.33,2.09-1.88,2.76-2.21-1.55-1.54-.88-3.09-1.44-4.74-0.43-1.32-3.52-2.53-4.62-3.08a19.043,19.043,0,0,0-5.94-1.1c-1.65,0-2.32-2.87-4.07-2.32v-0.99c-0.34.88-.77,1.98-1.66,1.98a1.224,1.224,0,0,1-1.1-.33c-0.54-1.1,0-1.54-.54-2.42-0.56-.88-1.77-0.44-1.99-1.33,1.54-.77,4.84-0.55,5.62-1.87h-0.78a10.583,10.583,0,0,1-3.18.45,7.831,7.831,0,0,1-1.55-.34,1.643,1.643,0,0,1-.66-0.99c-0.77-1.55-3.41-.88-3.41-2.43,0-.65.88-0.99,1.54-0.99,1.32,0,2.1-1.87,4.08-1.87,1.86,0,3.29,1.76,5.28,2.21v3.96c0,0.55.66,0.99,1.65,0.99,0,0.45,1.54,2.21,2.2,2.21,0.77,0,1.76-1.65,1.98-1.88a4.433,4.433,0,0,1,2.64-1.43c0.99-.33,2.31-2.32,3.63-2.53,0.11,0.55.99,0.44,1.33,0.55,1.31,0.44,2.2,1.76,2.85,2.09h2.98a5.474,5.474,0,0,0,2.2.99v0.22Zm38.63,6.62c-1.32-.23-1.32-1-1.1-2.1-1.43-.66-1.21-1.88-2.64-2.75-0.88-.56-1.66-0.45-1.99-1.33,2.1,0.66,3.09,1.98,4.3,3.2,0.88,0.88,2.09.66,2.09,2.2a1.864,1.864,0,0,0,0,.78A0.731,0.731,0,0,1,1444.75,1401.43Zm7.26,5.28a1.873,1.873,0,0,1-1.54-2.42,15.239,15.239,0,0,1,2.97,3.2,1.066,1.066,0,0,1-.77.88,0.824,0.824,0,0,1-.66-0.77v-0.89Zm21.46,14.01a1.3,1.3,0,0,0,0,.65c-1.1,0-1.87-1.65-1.76-2.32C1472.59,1419.61,1473.47,1419.83,1473.47,1420.72Zm-2.97-1.88c-0.11,0-.45.21-0.55,0.21-1.32,0-3.09-.43-3.09-1.75C1468.63,1417.3,1469.73,1417.73,1470.5,1418.84Zm0.11-2.32c-1.1,0-3.08-2.64-3.19-3.52A6.283,6.283,0,0,1,1470.61,1416.52Zm-9.47-6.17c0.99,0.56,3.2,1.21,3.86,2.21a2.16,2.16,0,0,1-.89.22c-0.87,0-3.4-.88-3.4-2.1h0.21Zm-5.39-2.75c1.21,0.88,1.98.55,2.64,1.54h-0.98l-1.66-1.11a0.892,0.892,0,0,0,.55-0.1Zm-31.8,116.27a20.349,20.349,0,0,0,4.84-1.1c0.33,1.32,1.21,1.98,1.21,3.3,0,2.43-2.97,8.27-5.17,8.27-3.3,0-6.94-8.16-6.94-10.47C1417.89,1522.1,1423.84,1523.87,1423.95,1523.87Zm5.83-4.08a5.759,5.759,0,0,1-.33,1.88,1.614,1.614,0,0,1-1.1-1.88A3.1,3.1,0,0,0,1429.78,1519.79Zm-33.34-14.32c-1.22.76-2.87,0.99-3.86,0C1394.67,1504.47,1394.89,1504.69,1396.44,1505.47Zm-20.04-82.45v1.66h-1.1a5.8,5.8,0,0,1-3.3-1.1A13.309,13.309,0,0,1,1376.4,1423.02Zm66.8,44.86c1.76,2.31,2.86,8.27,2.86,11.58,0,2.42-.65,5.84-1.64,6.83v3.09c-0.56.88-.22,1.32-0.77,2.2-1.99,3.09-3.97,4.19-5.07,7.72-0.88,2.64-3.19,6.05-3.19,9.91v-0.22c-1.21,5.07-10.23,2.75-11.12,8.04-0.88-.11-5.39-2.63-5.5-3.3-2.52.22-1.65,2.42-4.4,2.42-4.3,0-11.33-2.85-11.33-7.38,0-1.66-1.44-2.98-1.55-4.41a5.259,5.259,0,0,1-.11-0.55,7.567,7.567,0,0,1-2.2.78h-1.32a4.952,4.952,0,0,0,.78-2.43,2.63,2.63,0,0,0-1.1-2.2c0,0.33-.23.76-0.23,1.1-0.99.44-1.1,2.42-2.75,2.42a1.183,1.183,0,0,1-1.1-1.1c2.75-.55,3.3-6.28,3.2-7.94-1.99,1.99-4.74,7.72-7.05,7.72-1.33,0-.88-1.98-0.88-1.98-0.77,0-3.19-5.4-4.07-6.62-1.77-2.2-8.26-3.3-11.89-3.3-3.97,0-4.73,1.76-7.15,2.53-5.62,1.88-12.54-.11-13.43,5.51a64,64,0,0,1-6.6.77c-1.77-.88-1.77,0-3.08,0-3.85,0-5.51,3.64-10.46,3.64-1.87,0-7.15-2.32-7.15-3.86,0-1.65,2.53-2.42,2.53-4.96,0-3.19-1.65-4.96-2.21-6.94-1.31-4.85-1.64-6.39-3.07-10.69-0.55-1.66-2.75-2.2-2.21-3.86,0.23-.44.34-0.88,0.66-1.43a4.723,4.723,0,0,0,1,1.43c0.32-.44,0-0.88,0-1.43,0-1.65-1.32-2.98-1.32-5.73v-6.39a1.526,1.526,0,0,1,1.21-1.33,3.776,3.776,0,0,1,.11,1.11c2.09-.23,4.62-2.98,5.83-4.19,1.32-1.33,5.28-1.55,7.37-1.87,3.97-.67,12.99-3.75,12.99-7.5v-1.88a2.818,2.818,0,0,1,1.43-2.75c0.55,0.99,1.21,1.43,1.65,2.2,1.21-.77.66-2.42,1.21-3.63a5.02,5.02,0,0,0,2.31.88c0-3.09,2.2-3.53,2.42-6.06,2.97,0,3.52-2.2,5.84-2.2,1.97,0,3.08,2.2,3.3,4.18a2.921,2.921,0,0,1,2.42-1.21,4.714,4.714,0,0,1,1.65.88c0.66-.99.33-1.76,0.33-2.75,0-1.55,1.65-2.32,1.65-3.86s4.4-2.54,6.27-2.54a5.759,5.759,0,0,0,1.99-.77c-0.67-.99-1.77-1.32-1.99-2.54,3.74,1.55,5.95,3.1,9.91,3.1,1.43,0,1.87-.89,3.08-0.89,0.66,0,2.2,1.1,2.2,1.99,0,1.43-1.65,1.53-2.53,2.2l-1.32,5.51c0,0.88,1.55.66,2.2,1.1s0.66,2.1,1.1,2.2c2.97,1.11,4.63,1.66,7.37,2.76,1.55,0.55,2.1,2.97,4.19,2.97,3.41,0,4.07-6.5,4.62-9.03v-9.92c1.76-1.32,1.21-2.76,3.08-3.75,0.33,2.98,1.76,4.96,2.42,7.06,0.44,1.54-.11,3.52,1.1,4.41,1.1,0.32,3.19.99,3.63,1.21,1.32,0.88,1.32,4.41,1.88,6.17,0.98,2.97,1.87,4.41,2.75,7.16,0.88,2.65,5.61,3.64,7.48,5.51,1.32,1.32,1.54,3.42,1.98,4.97,0.44,1.43,2.2,1.43,3.63,1.43,0,4.4,4.19,6.28,6.28,8.37Zm48.21,78.91c-0.44,1-.99,1.87-1.98,1.87a3.641,3.641,0,0,0,0-1.87h1.98Zm9.46-17.41a4.644,4.644,0,0,1,.12-1.1,2.207,2.207,0,0,1,1.98-1.22c0-.22.11-0.44,0.11-0.65,0-1.66,1.64-3.2,2.64-3.64a0.948,0.948,0,0,0,.77,1.1c0,0.77-.11,1.54.54,1.54,0.78,0,1.33-.77,1.88-0.99a0.736,0.736,0,0,0,.77.44,1.674,1.674,0,0,0,.66,1.65c-0.33,1.44-2.53,5.51-4.3,5.51-0.32,1.66.23,2.1,0,3.42-0.54,0-3.18.56-4.06,0.56-0.34,1.32-3.42,7.71-3.42,7.71-0.99.99-2.97,2.64-4.18,2.64-0.44,0-1.76-.55-2.42-0.55s-4.95-1.66-4.95-2.2a0.6,0.6,0,0,1-.56-0.45c0-2.86,3.31-4.41,4.41-6.05a2.262,2.262,0,0,1,1.76-1.44c2.64,0,4.29-2.75,6.16-3.64C1499.33,1531.81,1500.87,1529.38,1500.87,1529.38Zm10.68-19.4c-0.34-.88-1.21-1.21-1.21-2.09a4.081,4.081,0,0,1,.33-1.1c-2.54-.44-4.08-4.08-4.74-6.72,1.21,1.87,3.09,1.98,4.18,3.08,0.67,0.66.67,1.44,1.33,1.76a2.669,2.669,0,0,0-.44.78,11.072,11.072,0,0,0,1.87,3.52h0.66a1.016,1.016,0,0,1,.99-1.1h0.66c0,2.87,1.43,4.52,4.07,4.52,2.1,0,1.98-1.11,3.75-1.11a1.315,1.315,0,0,1,.88.67c-1.55,1.54-1.1,3.85-2.2,5.51l-0.45-.55c-0.11,0-.22.33-0.32,0.33-1.11.22-2.21,0.55-2.21,1.43,0,0.33.44,0.77,0.44,1.1,0,0.77-1.32,1.88-1.54,2.21-1.1,1.65-1.76,3.85-4.07,3.85a1.453,1.453,0,0,1-1.65-1.43c0-1.32,1.32-1.87,1.32-3.2,0-2.2-4.08-1.32-4.08-3.3,0-1.11.99-1.22,1.55-1.76a5.8,5.8,0,0,0,1.32-4.3,11.106,11.106,0,0,0-.55-2.54h0.11v0.44ZM1522,1442.2a1.985,1.985,0,0,0,1.32.99v1.33c-0.66.66-.66,0.44-1.53,0.44s-2.32-.22-2.32-0.66C1519.47,1442.86,1521.01,1442.54,1522,1442.2Zm5.28-3.19V1440c-1.31.33-1.65,1.43-2.75,1.43a1.106,1.106,0,0,1-.65-0.99C1523.88,1439.12,1526.62,1439.01,1527.28,1439.01Zm-167.92-73.42a3.958,3.958,0,0,0-.59-0.77c-0.42.56-.92,0.75-0.92,1.32-0.01.68,1.18,0.98,1.16,2.04a1.166,1.166,0,0,1-1.13,1.32,0.762,0.762,0,0,1-.49-0.77,1.8,1.8,0,0,1-1,.07c-1.41-.02-2.58-1.57-2.56-3.4a1.186,1.186,0,0,1,.53-1.14c-0.1-.29-0.29-0.67-0.39-0.96l-1.4-.03a2.486,2.486,0,0,0-.02.86,1.209,1.209,0,0,1-.99-0.49,3.028,3.028,0,0,1-.31.47,4.592,4.592,0,0,1-.99-0.88c-1.02.94-.88,4.11-1.98,4.09-0.81-.01.03-1.82,0.03-2.21,0.02-.29-0.38-0.68-0.37-0.96a10.66,10.66,0,0,1,.64-2.48c2.11,0.04,1.64-2.08,3.45-2.05,1.3,0.02,1.08,1.55,1.78,1.56,0.2,0,.4.01,0.6,0.02a1.121,1.121,0,0,1,.93-1.24c0.02-1.34,1.82-.93,2.13-1.49a10.957,10.957,0,0,0,.34-2.3,2.4,2.4,0,0,1,1.6.89c0.78,0.78,2.39,6.47,2.38,7.33-0.02,1.06-1.23,1.61-1.27,3.24-0.4-.1-1.26-2.23-1.25-2.42Zm-24.31-5.6-0.7-.01c1.06-2.86,4.49-3.95,5.63-6.04a3.8,3.8,0,0,1,.52-1.23,1.753,1.753,0,0,0,.88,1.54,1.564,1.564,0,0,1-1.01.57,1.492,1.492,0,0,1-1.73,1.02C1338.2,1358.03,1336.27,1359.25,1335.05,1359.99Zm5.54-23.59a6.827,6.827,0,0,0,.65-2.86c0.01-1.15-.48-1.93-0.45-3.08,0.02-.96.23-1.91,1.03-1.9,1.11,0.03.88,1.74,1.78,1.76,0.6,0.01.92-.76,1.32-0.93,0,0.08.2,0.38,0.19,0.47,0,0.2.2,0.49,0.19,0.68-0.02,1.25,1.26,2.71,1.24,4.33-0.04,2.12-1.85,2.28-1.88,4.29-0.03,1.44,1.33,3.86,2.43,4.35,0-.09,0-0.38.01-0.48a1.03,1.03,0,0,1,1.12-.74c1.2,0.02,1.46,2.23,2.06,2.24,0.41,0.01.52-.66,0.92-0.65,0.2,0,.4.2,0.6,0.2-0.12.57-.62,0.66-0.63,1.14,0,0.19.5,0.1,0.71,0.01a1.154,1.154,0,0,0,1.28,1.17c0,0.29-.01.49-0.01,0.77a0.628,0.628,0,0,1-.41.57,0.916,0.916,0,0,1-.49-0.77c-0.58-1.17-2.98-2.07-3.57-2.94-0.51.65-.22,1.04,0.07,1.82-1.4-.03-1.46-2.13-2.87-2.16-0.6-.01-1.01.56-1.62,0.55a1.786,1.786,0,0,1-1.48-1.37,1.411,1.411,0,0,1,.62-1.05l0.02-.96-0.6-.01a1.169,1.169,0,0,1-.72.66c-0.4-.01-2.19-1.19-2.18-1.76C1339.95,1338.21,1339.59,1336.19,1340.59,1336.4Zm17.08,16.6-1.51-.02a2.935,2.935,0,0,0,.87,1.93l-0.01.57c-0.3,0-.6-0.01-0.9-0.01-0.71-.01-0.89-0.78-0.48-1.35l0.01-.57a2.248,2.248,0,0,1-1.49-1.28l0.02-.57c0.5,0.01,1.2.02,1.3,0.02a0.759,0.759,0,0,0,.51-0.57c0.03-1.34-2.17-2.05-2.36-2.82a4.051,4.051,0,0,1,.91-0.37c0.8,0.02,1.4.41,2.2,0.43a3.028,3.028,0,0,1-.01.95c0.2,0.01.4,0.01,0.6,0.02a7.035,7.035,0,0,1-.03,1.52,6.315,6.315,0,0,0,.79.89A9.084,9.084,0,0,1,1357.67,1353Zm-9.89-2.95c0.39,0.49,2.9.82,2.88,1.68-0.03,1.63-2.36,2.45-3.27,3.01,0.04-1.63-.34-3.46-0.32-4.32a0.775,0.775,0,0,1,.61-0.47,1.5,1.5,0,0,1,.59.49Zm4.85,4.11c-0.02,1.16-1.14,1.9-1.16,3.05-0.02.87,0.49,0.68,0.48,1.26a0.765,0.765,0,0,1-.61.46,5.056,5.056,0,0,1-2.17-2.52,1.033,1.033,0,0,1,.91-0.57c0.01-.29.56-2.67,1.06-2.76A1.113,1.113,0,0,1,1352.63,1354.16Zm1.32-.94c-0.03,1.73-1.34,2.18-1.37,3.63-0.1-.01-0.4-0.01-0.5-0.01,0.32-1.14.94-1.9,0.97-3.63C1353.35,1353.22,1353.65,1353.22,1353.95,1353.22Zm1.26,2.43a1.762,1.762,0,0,1-1.63,1.88,0.751,0.751,0,0,1-.6-0.49c0.01-.57.61-0.84,0.93-1.42A1.092,1.092,0,0,0,1355.21,1355.65Zm-4.61-6.32c0.02-.67.02-1.05,0.03-1.43l0.9,0.01c0.29,0.87,1.59,1.18,1.57,2.42-0.02.49-1.1-.49-1.09-0.97A6.65,6.65,0,0,0,1350.6,1349.33Zm-5.51-.76c-0.6-.01-2.84-3.7-2.84-3.7l1,0.02c1.19,0.78,2.3.62,2.57,1.77C1346.01,1347.43,1345.49,1348.57,1345.09,1348.57Zm1.06-3.05a1.243,1.243,0,0,0,1,.01A1.2,1.2,0,0,0,1346.15,1345.52Zm-3.64-30.17c-1.99,0-1.66-1.43-1.66-3.09,0-2.32,2.32-6.61,3.86-6.61C1347.46,1305.65,1345.04,1315.35,1342.51,1315.35Zm-37.64,10.14c0.88,0,4.62-2.75,6.05-2.75a1.92,1.92,0,0,1,1.32,1.65c0,1.54-3.31,4.95-4.95,4.95-1.66,0-2.42-.76-2.42-2.2C1304.87,1326.48,1304.32,1325.49,1304.87,1325.49Zm-31.04,29.76c0.89-1.88,1.21-3.09,2.2-5.18,0.12-.33.89-0.67,0.89-1.22,0-.88-1.55-6.06-2.32-6.83s-1.97-1.32-1.97-2.54c0-.33.1-0.65,0.1-0.99v0.11a4.52,4.52,0,0,0,1.1-2.31c0-1.32-.1-3.64-0.88-4.85-0.66-.99-2.09-0.99-2.09-2.97a6.276,6.276,0,0,1,1.77-4.63c0.54-.56,1.86-0.33,2.74-0.88,2.65-1.77,4.29-2.65,6.49-5.96h0.67a1.046,1.046,0,0,0,.66,1.22,1.031,1.031,0,0,0,.55-0.99v-2.88a15.174,15.174,0,0,1,2.97-.65h3.52c1.54,0.76,2.75-1.55,4.4-1.55,1.77,0,2.86,1.21,4.73,1.21,0,2.87,2.2,3.75,3.86,4.3-2.2,3.42-7.6,4.2-7.6,8.93a2,2,0,0,0,.99,1.65c2.53,2.54,3.63,5.4,6.39,7.17,2.63,1.76,4.4,6.61,4.4,10.25,0,2.53-1.32,3.52-1.32,5.51-3.53.88-3.86,2.09-6.72,3.52-1.32.67-1.1,2.43-2.42,2.43-0.33,0-.33-0.66-0.33-0.99v1.21c0,1.1-2.2,2.75-2.64,2.75s-0.88-1.53-.88-2.2c0-.88,0-1.32.44-1.54a2.594,2.594,0,0,1-.77-1.66c-1.65,0-3.85-.55-3.85-2.2-2.42,0-1.21-1.65-2.53-2.97-1.54-1.55-3.08-1.66-4.84-2.21a3.87,3.87,0,0,1-.56-1.43c-0.33-1.22-1.64-1.43-2.85-1.43-0.88,0-.67.66-0.67,1.21,0,0.99.45,1.21,0.45,2.1,0,3.3-3.19,4.18-3.19,7.15,0,3.42,3.73,2.1,3.73,5.29h-0.21c0.43,0.78.55,2.76,1.31,3.53,2.98,2.98,9.47,3.64,9.47,9.15,0,1.1-.44,1.1-0.44,2.1,0,1.98,1.65,2.64,2.09,3.96a21.983,21.983,0,0,0,.99,3.2,8.552,8.552,0,0,1-1.43.11c-0.33,0-.44.44-0.77,0.44-1.1,0-1.21-.78-1.87-0.99a12.986,12.986,0,0,1-7.7-8.05c-0.99-3.19-1.22-5.51-2.43-8.04-0.76-1.54-1.53-5.52-3.3-5.52-1.1,0-.43.67-1.43,0-0.22,0,0-.43,0-0.66a18.169,18.169,0,0,1,.55-4.18h0.55Zm23.56,40.55a3.816,3.816,0,0,1-.78-1.54c-0.43-.88-2.2-0.33-2.2-1.21,0-.55,1.54-1.33,2.31-1.43,0.55,1.65,1.21,3.74,2.75,3.74a3.809,3.809,0,0,0,.11,1.11h-0.76C1298.15,1396.47,1297.83,1395.8,1297.39,1395.8Zm4.95-.55h1.09a4.711,4.711,0,0,1,1,.55,1.415,1.415,0,0,1-1.21,1.33,1.144,1.144,0,0,1-.88-1.33A0.848,0.848,0,0,1,1302.34,1395.25Zm-27.51-4.85c0.88,1.11,1.64,1.77,1.53,3.09a4.522,4.522,0,0,1-1.98-2.65v-0.44h0.88v0.56Zm-3.86-6.72c0.66,0.44,2.42,2.64,1.54,2.64-0.44,0-1.87-1.76-1.98-2.42h-0.1Zm102.79-102.05,0.44-1.54a1.612,1.612,0,0,1-.88-1.44,1.526,1.526,0,0,0,0,.99,9.032,9.032,0,0,0-1.32.45,1.3,1.3,0,0,1-1.1-1.22c0-.66,3.08-2.75,3.41-2.75,0.88,0,1.54.88,2.86,0.88,0,0.32-.22,1.1.11,1.1l0.99,0.88a2,2,0,0,0,0,1.11,1.6,1.6,0,0,1-.99,0c-0.33,1.98-1.21,5.39-2.75,5.39-0.33,0-.33-0.66-0.33-0.99v0.66c-0.88,0-1.53-1.32-1.53-1.76A12.3,12.3,0,0,1,1373.76,1281.63Zm11.55-3.86a3.235,3.235,0,0,1-1.64-.77c-0.99.99-1.21,2.75-2.64,2.75-0.56,0-.77-1.1-0.67-1.65a1.345,1.345,0,0,1-.88-1.21s2.09-1.55,2.09-1.66c1.88,0.56,2.21-1.32,3.74-1.32C1387.74,1273.91,1386.41,1277.77,1385.31,1277.77Zm3.42-1.54c-0.33,0,0-.55,0-0.89,0-.65.33-1.43,0.33-1.87-1.32-.33-1.98-0.99-3.3-0.99-0.67,0-.78.77-1.1,0.88-0.88.44-1.55-.11-2.42,0.33a13.662,13.662,0,0,1-5.73,1.54c-0.77,0-1.54,0-1.54-.43,0-.34,1-0.56,1.43-0.78,2.31-1.54,3.3-4.3,6.16-4.3h6.83c1.87,0,2.53-3.41,3.52-3.41,0.11,0,1.54-2.65,1.87-2.76a1.786,1.786,0,0,0-.55,1.21,0.693,0.693,0,0,0,.55.55c1.66,0,1.88-1.09,3.19-1.54,2.31-.77,6.06-5.39,6.06-8.93,0-.76-0.45-0.76-0.45-1.32,0-1.32,1.1-4.08,2.54-4.08,0.22,0,.11,1.43,1.43.33-0.11,0-.22-0.1-0.33-0.1-0.33,0-.55-1-0.23-1a1.268,1.268,0,0,1,1.33.55,5.082,5.082,0,0,1,.22,2.21c0,1.54,1.53,2.31,1.53,3.85,0,1.77-1.53,1.99-1.53,3.42v0.67a1.625,1.625,0,0,1-.99.21c-1.1.33-.78,3.75-0.78,4.96,0,0.99-1.2,1.65-1.2,3.09a5.259,5.259,0,0,0,.55,2.09c-1.33.67-1.33,1.77-2.64,2.2-0.44-.88,0-0.99.1-1.76-1.53,1-2.52,1.11-2.96,2.65a0.693,0.693,0,0,1-.55-0.55h-1.11a3.352,3.352,0,0,1-2.2,1.32c-2.31,0-2.2-1.87-3.19-1.87a0.958,0.958,0,0,0-.66.88,4.4,4.4,0,0,0,1.1,1.76,3.742,3.742,0,0,1-1.1.11c-0.77,0-2.09,1.77-2.64,2.86C1389.39,1277.11,1389.5,1276.23,1388.73,1276.23Zm17.17-35.05a3.621,3.621,0,0,0,1.09,0c1.88,0,2.65-4.3,2.65-5.73,0-.45-0.55-0.66-0.55-1.1a2.21,2.21,0,0,1,.66-1.44c2.97,1.99,4.29,5.51,8.58,5.51,0.88,0,1.65-.65,2.31-0.22a3.933,3.933,0,0,0-.66,1.33,1.941,1.941,0,0,0,1.32,1.43,5.248,5.248,0,0,1-3.41.99c-2.31,0-3.08,2.53-3.96,3.85-1.76-1.1-2.86-1.32-4.73-2.53a1.228,1.228,0,0,0-.77.89c-1.44,0-3.3-1.11-3.3.76,0,1.11,1.64,1.11,2.09,1.55-0.88,1.21-1.76.77-2.65,1.65h-0.65v-2.53c0-.44-0.56-0.67-0.56-1.11,0-1.21,1.77-1.98,1.99-2.75v-0.88a3.818,3.818,0,0,0,.77.54Zm17.49-4.52,0.56,0.43c-0.44.68-1.77,2.32-2.75,2.32-0.34,0-.23-0.65,0-0.99a4,4,0,0,1,2.53-1.65Zm7.82-3.2c-2.54,0-2.54,2.21-4.07,2.21a0.918,0.918,0,0,1,0-.55s1.1-2.43,2.42-2.43a8.189,8.189,0,0,0,1.65,0v0.77Zm3.52-2.42c0.33,0,0-.56.11-0.89,0.22-.66,1.54-0.66,1.76-0.66-0.11.66-.99,2.21-1.87,2.21C1434.51,1231.7,1434.51,1231.04,1434.73,1231.04Zm-19.15-14.11c-2.97,0-3.3,3.53-3.3,6.39,0,2.54,2.31,3.75,3.2,5.63a1.288,1.288,0,0,1-.34.1c-0.44.11-.99-0.66-1.1-1.1h-1.1c-1.32,0-1.32,2.43-2.64,2.43-0.33,0,0-2.65,0-3.2,0-1.99.44-3.3,0.44-4.96,0-1.55-.67-1.76-0.67-3.08,0-1.66.56-2.09,0.56-3.42v-6.5c0-1.65-1.65-2.32-1.65-3.97,0-2.32.66-5.29,2.31-5.62,0-.67.44-0.89,0.44-1.43v-2.32h0.77c0,2.2.88,3.64,1.32,5.07,0.44,1.54-.44,2.64.33,4.19v2.64c-0.22,1.1.55,2.32,0.77,2.98,0.88,2.76,2.32,4.96,2.97,7.61A2.928,2.928,0,0,0,1415.58,1216.93Zm-270.84-100.51c-2.42-2.43-6.39-3.31-6.39-7.5,0-7.05,7.6-14.44,13.21-15.98,1.98-.55,2.53-2.97,5.29-2.97,1.32,0,1.76-2.21,2.42-2.54,3.63-1.76,6.38-.88,10.23-2.75,2.75-1.32,11.23-1.98,11.23-5.73,0-1.21-3.09-2.76-4.41-2.76-5.5,0-10.67,6.28-16.5,6.28-1.32,0-1.99-1.32-3.3-1.32-2.1,0-2.1,1.32-3.52,1.32-4.08,0-7.16,5.29-9.91,5.29-1.66,0-2.75.78-4.4,0.78a1.1,1.1,0,0,0-1.1,1.1c0,0.66.76,1.1,0.76,1.98,0,3.09-5.72,4.74-5.72,6.62,0,0.88,1.54,1.1,1.65,2.42-1.75.44-5.28,1.21-5.28,3.09v1.65c0,1.98-3.3,1.76-3.3,4.41,0,1.32,1.98,2.2,1.98,2.2a32.835,32.835,0,0,1,3.3,0c1.87,0.55.88,2.31,1.65,3.86,0.22,0.55,1.98,0,2.75,0a2.57,2.57,0,0,1,.77.77h8.59a3.473,3.473,0,0,0-1.1-1.32Zm-89.55,119.68c-0.42,1.79-.36.89-0.7,1.56v2.86c-1.1,1.1-3.07,3.3-3.07,4.85,0,2.2,2.96,3.74,3.63,4.73a2.2,2.2,0,0,1-1.43.45c-0.99.32-1.76-.11-2.76,0.32-1.42.67-1.76,2.1-3.19,2.1-1.64,0-2.64-2.2-4.62-2.2-1.76,0-2.2.99-3.63,1.43a4.519,4.519,0,0,1,0,2.42c-1.65,0-1.87-1.65-2.86-1.65a1.391,1.391,0,0,0-1.21,1.21l2.09,2.43c-0.11.66-.45,0.99-0.45,1.32s2.98,3.08,3.86,3.08a1.64,1.64,0,0,0,.44,1c-0.55.33-1.65-.11-1.87,0.66h-0.22a5.9,5.9,0,0,1-2.86-1.66v0.89a3.554,3.554,0,0,1,.65,1.87c0,0.66-1.1,1.98,0,2.54h-1.53a3.614,3.614,0,0,1-3.3-3.64c0-.77,1.1-1.1,1.43-1.66h-1.88c-0.44,0-.65-0.98-0.65-1.21a7.979,7.979,0,0,0-2.31-3.52c-1.33-1.32-3.08-2.32-3.08-4.63v-2.87c0-1.54-2.43-3.86-3.97-4.62-1.54-.78-3.3-0.89-3.3-2.43h-1.54c-2.42,0-5.17-3.75-5.17-6.28h-3.31c-1.43,0-.77-2.32-1.43-2.98-1.21.77-3.63,0.77-3.63,1.99a0.852,0.852,0,0,0,.55.66,6.427,6.427,0,0,0-.44,1.97c0,1.67.99,2.32,2.31,2.77,1.65,0.54,2.53,2.42,2.86,3.41,0.44,1.54,1.21,3.31,2.09,3.75,1.65,0.77,2.76.22,4.41,0.22a1.185,1.185,0,0,1-.22.88c-0.44,1.32,2.2,1.88,2.86,2.21,2.2,1.1,4.84,1.98,4.51,4.29-1.1-.22-1.76-1.65-3.52-1.65-1.33,0-2.43.66-2.43,1.76,0,1.44,1.99,1.77,1.99,3.2,0,0.55-1.43.55-1.43,0.55-0.99,1-.77,3.31-2.32,3.31a1,1,0,0,1-1.21-.78c1.33,0,1.87-1.64,1.87-2.97,0-1.65-.88-2.09-1.1-3.08a11.332,11.332,0,0,1-3.08-3.3c-0.44,0-2.09-.46-2.09-1.11-3.41-.78-4.18-1.77-6.05-3.64-0.77-.77-2.42-1.22-2.64-1.99-1.979-2.53-2.642-7.05-6.826-7.05-1.978,0-2.089,1.43-3.079,1.88-2.093.99-3.522,2.97-5.942,2.97s-3.963-1.21-6.167-1.21c-1.649,0-3.408,1.1-3.408,2.76l0.658,2.42c-0.658,2.2-3.08,2.98-5.393,3.52-1.981.45-5.172,4.97-5.172,7.39a1.447,1.447,0,0,0,1.1,1.43c-1.431,2.2-2.089,3.53-4.4,4.63-1.321.66-1.539,3.42-3.742,2.75v0.11c-0.989-.33-2.86.23-3.411,0.23-2.643,0-4.07,2.2-6.5,2.2-1.648,0-1.757-4.07-4.29-4.07-1.871,0-3.078.76-4.731,0.76a0.858,0.858,0,0,1-.881-0.88v-4.4a1.707,1.707,0,0,1-1.759-1.55c0-1.43,1.208-1.76,1.208-2.53,0-2.76.989-5.62,0.989-8.49,0-1.65-1.207-3.19-1.207-4.19,0-.66,3.741-2.97,4.4-2.97,0.439,0,.99.66,1.652,0.44h4.95a3.852,3.852,0,0,0,1.871.66h5.282c1.321-.34,1.982.44,3.084,0.44,0.77,0,2.42-.55,2.751-0.55,0-2.21,1.429-2.86,1.429-4.96,0-.44-0.114-2.38-0.114-3.04l-0.217.17a4.522,4.522,0,0,0,.443-1.65c0-.99-0.662-0.77-0.662-1.66-2.2,0-2.86-1.98-2.86-3.74-0.661-.11-0.77-0.67-1.321-0.77-1.761-.55-6.605-1.43-6.605-3.09a0.534,0.534,0,0,1-.109-0.44c0-.99,3.081-1.65,4.181-1.98,0.331,0.66,2.092,1.1,2.974,1.1a11.016,11.016,0,0,0,2.53-.55v-0.77c-0.77-.22-0.441-1.87-0.551-2.2v-0.89h1.1a4.533,4.533,0,0,0,3.3,1.43,2.083,2.083,0,0,0,1.872-1.65c3.3,0,4.181-2.42,4.843-5.07a6.5,6.5,0,0,0,1.538-.22,41.407,41.407,0,0,0,5.5-2.42c0.884-.88.551-2.21,0.551-3.53a2.974,2.974,0,0,1,1.1-1.21c1.538-1.55,3.08-3.31,5.609-3.31,1.433,0,.773.33,1.544,0,0.329,0.33.658-.54,0.879-0.77,0.773-.77,1.761-0.11,2.753-0.11,0.658,0,2.419-.99,2.419-1.87a22.432,22.432,0,0,0-.767-2.76c-0.444-2.98-2.2-3.86-2.2-6.5,0-4.63,4.289-4.96,7.043-6.95v1.33a5.457,5.457,0,0,0-.659,2.87c0,1.1,1.212,1.21,2.087,1.21v0.88c0,0.54-.988.77-1.317,1.1-1.1,1.1-2.423,2.09-2.423,4.08a1.832,1.832,0,0,0,1.212,1.98,4.273,4.273,0,0,1,0,1.21c1.211,0,1.653.44,2.643,0.44,0.217,0.55.44,1.33,0.77,1.33,2.97,0,5.06-2.54,7.59-2.21-0.11.55-.66,0.88-0.66,1.21a11.62,11.62,0,0,0,1.87,1.55c1.21,0,1.32-.77,1.88-0.99,1.86-.89,3.3-0.56,4.94-1.33,1-.44,2.76-2.09,4.08-2.09a11.578,11.578,0,0,1,3.74.44,4.113,4.113,0,0,0-.44,1.21c2.87,0,5.81-.56,7.9-0.56s3.44-.14,5.64-0.14c2.31,0,3.41,4.12,3.41,6.54,0,1.44-1.55,2.21-1.55,3.64,0,2.32,2.09,3.75,2.09,5.84,0,1.32-2.09,1.77-2.52,2.42a10.411,10.411,0,0,0-1.77,6.4c0,3.08,2.2,2.42,4.74,2.42,3.52,0,5.17-1.43,7.82-1.43,2.96,0,2.3,5.73,5.06,5.73v4.52a1.3,1.3,0,0,0,.54.77l0.56,0.66c0.55,0,1.86-.55,2.64-0.66,0.11,0.55,0,1.1.11,1.66C1056.37,1234.46,1055.19,1234.99,1055.19,1236.1Zm-54.95-61.05c-1.432-.66-1.653-1.65-2.42-2.75-2.311,3.31-5.835,7.49-10.457,7.49-0.661,0-4.954-2.65-4.954-3.08,0-.89,1.434-1.44,1.873-1.66v-1.65a4.971,4.971,0,0,0-2.861.55c0-.77,1.209-2.1,1.762-2.86-1.655-1.98-1.874-4.75-1.874-7.83,0-1.65,1.761-1.55,2.423-2.54,1.32-1.87,2.53-3.2,4.952-3.85,1.983-.55,2.42-3.2,6.383-2.76-1.211-.33-1.653-0.55-2.643-0.77,4.842-1.21,6.714-5.07,10.016-7.72,1.32-.99,1.1-4.41,1.98-4.41,0,0,1.1-2.42,1.1-2.53a10.073,10.073,0,0,1,5.17-4.63c2.31-.88,5.4-4.63,5.95-6.94-2.75.55-3.86,1.99-6.5,1.99a6.2,6.2,0,0,1,2.2-1.55,8.438,8.438,0,0,1-1.65-.33c0.22-1.1.78-1.76,1.65-1.76,0.34,0,.56.33,0.88,0.33a5.46,5.46,0,0,1,.99-1.43,1.65,1.65,0,0,1,.33,1.98c1.76,0,2.21,1.1,3.64,1.1,0.55,0,1.76-2.65,1.98-2.76a3.093,3.093,0,0,0-1.76-.21,3.238,3.238,0,0,1,2.53-1.77,3.8,3.8,0,0,0,2.2-.22l-0.88-.88c1.1-1.11,3.08-1,4.73-1.32v1.32c1.43-.33,1.77-2.87,4.08-2.98v1.87c1.43-2.63,3.3-1.98,5.28-3.08-0.88-.33-1.65-0.55-1.65-1.33,0-.54,1.97-0.98,2.3-1.64,0.67,0.76,1.33,1.64,2.32,1.64,1.65,0,5.83-2.75,5.83-1.32,0,1.55-1.87,1.99-2.31,3.53,2.2,0.22,2.86-2.31,4.73-3.31a4.993,4.993,0,0,1,.55,1.99,19.138,19.138,0,0,1,4.18-3.09c0.11,1.44-.11,2.43,1.1,2.54,0.34-.88.77-1.66,1.66-1.66a22.307,22.307,0,0,1,3.85,1.77c-1,2.64-1.87,1.76-4.41,2.64,1.1,0.89,1.88.99,1.88,1.66,0.99,0.11,3.3.44,3.62,0.44-1.53,1.1-5.5,3.09-5.5,5.62,0,2.09,3.86,1.98,3.86,4.41,0,1.87-1.98,2.75-1.98,4.63,0,2.09,2.2,3.3,2.2,5.5,0,1.33-1.1,1.99-1.1,3.31,0,2.43,3.3,3.09,3.3,5.51,0,0.66-1,1.22-1.32,1.44,0.99,1.76,3.52,2.2,3.52,4.63,0,3.63-7.59,7.71-9.9,10.8-1.11,2.2-6.17,2.53-8.26,2.2-2.2.67-4.73,1.65-6.61,1.65-1.42,0-2.41-.22-2.41-1.43-2.32,0-4.73-1.54-4.73-3.85,0-1.11,1.21-1.88,1.53-2.43-1.1-.44-2.09-2.98-2.09-4.19a7.375,7.375,0,0,0,0-2.2c4.63,0,7.05-6.06,9.91-7.72,1.54-.88,4.18-1.43,4.18-3.3,0-2.76-3.63-3.31-6.39-3.31-3.63,0-6.6,1.32-6.6,4.41,0,1.32.33,1.87,0,2.53,0,2.53-5.06,4.74-7.37,6.06-1.87,1.11-3.85,1.55-4.95,3.53-0.88,1.54.22,3.64-1.43,4.41v2.21a2.576,2.576,0,0,1,.88,1.98c1.98,0.33,4.95,2.32,4.95,4.4,0,1.66-3.3,4.42-4.4,4.42-2.2,0-3.08,3.19-3.08,5.51a1.827,1.827,0,0,0,1.65,1.87c-0.33,2.98-2.97,3.19-3.31,5.29h-2.96c-1.88,0-2.54,3.52-5.29,3.52-0.88,0-2.42-4.63-2.42-5.17,0-.34.22-0.77,0.22-1.1-1.87-1.88-1.65-3.42-2.42-5.85-0.55-1.65-2.2-2.09-2.2-4.07a4.9,4.9,0,0,1,.77-1.99v0.55Zm375.28,68.11a37.187,37.187,0,0,0,7.7,1.11c6.28,0,12.2-13.27,16.61-17.68a20.421,20.421,0,0,0,4.85-8.22c0.78-3.2-.52-5.25,1.2-8.31a13.458,13.458,0,0,0,1.93-6.06c0-2.98-4.78-8.79-6.97-7.13-6.52,4.92-9.91-2.64-9.91-3.31,0-3.08,5.94-6.5,8.25-8.81,3.41-3.42,7.93-9.14,12.66-10.47,4.18-1.1,17.28-2.21,20.91-2.21,4.5,0,6.6,2.21,9.36,2.21h6.04c1.77-7.28,5.07-11.57,12.67-11.57,1.98,0,2.86-.56,6.6,0-1.88,1.43-2.66,10.98,9.35-3.86,1.21-.22,6.97,2.16-1.65,7.71-3.01,1.94-5.72,1-7.7,3.86-2.31,3.31-4.4,7.5-7.7,9.37-2.76,1.54-6.61,4.08-6.61,8.82,0,4.07,1.32,17.41,4.4,19.83,2.21-3.3,3.74-9.36,8.26-10.47-0.55-3.08,4.4-3.74,4.4-6.05,0-3.64,3.85-4.64,3.85-6.62,0-1.32-1.07-2.66,0-4.96,8.9-19.05,17.06-8.82,20.36-8.82,9.8,0,16.73-12.5,25.31-12.67,16.34-.32,3.31-6.5,3.31-8.26,0-4.74,6.38-3.98,7.7-6.62,0.55-1.1-.55-3.86,1.65-3.86,6.93,0,12.65,9.37,17.61,9.37,2.2,0,2.64-4.07,3.85-5.51,1.87-2.2,3.63-1.98,6.6-2.97-3.96-5.3-16.84-8.27-23.11-11.9-8.69-5.08-20.25-10.48-33.01-10.48-3.53,0-5.97.74-5.51,2.21,3.41,10.7-5.06-.11-7.16,0l-25.3-.55c-1.44-5.73-5.18-7.72-12.66-7.72-4.07,0-10.23,1.54-12.65-.55-2.21-1.87-2.32-4.52-5.51-5.51a70.563,70.563,0,0,0-22.56-3.85c-8.59,0-9.79,4.51-10.46,8.81h-17.6c-3.09,0-3.52-2.54-7.16-2.76-0.33,1.55-.99,4.96-2.75,4.96-4.62,0-6.6-5.73-6.6-8.81,0-.78,8.89-6.39-13.76-8.27-2.85-.24-4.41.99-4.41,4.41h-12.1c-3.63-.99-22.67-3.2-25.09-7.16-14.45,11.79-11.22,4.41-11.22,4.41,3.41-4.3,36.67-13.28,9.35-19.84h-11.56c-1.09-3.09-3.52-6.07-8.25-6.07-5.72,0-8.03,4.3-11.01,6.62-2.19,1.65-16.42,7.38-15.18,2.2-3.63,1.11-19.13,2.16-27.19,9.37-1.68,1.52-2.2,6.06-4.73,6.06-3.63,0-17.27-1.32-17.27,4.96,0,1.32,1.21,2.64,1.64,4.41-2.42,1.54-3.3,0-11,0-6.53,8.76-5.94-1.32-7.48-3.3-0.55,3.52-2.86,5.06-5.72,6.6,0.88,3.09,5.57,6.3,2.19,9.92-2.32,2.5,4.48,10.71.9,10.71-4.62,0-5.85-16.66-5.85-20.07,0-3.75,6.13-5.29-3.3-7.16-4.75-.95-13.75,6.83-13.75,11.01,0,5.07,2.3,8.38,4.94,11.02,6.13,9.6-8.5-1.11-13.96-2.52-15.06-3.91-10.21,1.21-10.25,1.98-0.48,8.49-4.07,1.65-6.05,1.65-3.41,0-10.39,4.63-15.41,2.2-2.53-6.5-19.03,8.27-23.11,8.27-1.32,0-3.23-.97-2.75-2.21,1.71-4.45-.76-14.1-5.5.55-0.31.95,1.65,1.33,1.65,3.31,0,3.86-5.72,1.21-8.81,2.2s-1.58,11.53-14.3,6.07v4.41c-6.28-.56-5.5-7.28-7.7-10.48,4.73,0,7.31-.14,11.89,1.06,6.11,1.61,18.44-6.06-.35-12.07-5.37-1.73-17.27-7.72-20.9-7.72-0.33,0-.44-0.44-2.98-0.11-1.53,1.1-5.5,3.09-5.5,5.62,0,2.09,3.86,1.98,3.86,4.41,0,1.87-1.98,2.75-1.98,4.63,0,2.09,2.2,3.3,2.2,5.5,0,1.33-1.1,1.99-1.1,3.31,0,2.43,3.3,3.09,3.3,5.51,0,0.66-1,1.22-1.32,1.44,0.99,1.76,3.52,2.2,3.52,4.63,0,3.63-7.59,7.71-9.9,10.8,0.88,1.21,1.98,1.76,2.75,3.85-1.33.88-4.63,2.43-6.06,2.43-1.87,0-3.08-.77-5.5-0.77s-7.96,2.23-6.27,3.81c5.56,5.19,2.64,7.21,1.32,7.21-2.2,0-2.53-2.76-4.41-2.76-1.98,0-4.4,5.07-4.4,7.72,0,4.3-3.53,3.71-3.75,7.57,1.47-.15,2.83-0.31,3.95-0.31,2.09,0,3.44-.14,5.64-0.14,2.31,0,3.41,4.12,3.41,6.54,0,1.44-1.55,2.21-1.55,3.64,0,2.32,2.09,3.75,2.09,5.84,0,1.32-2.09,1.77-2.52,2.42a10.411,10.411,0,0,0-1.77,6.4c0,3.08,2.2,2.42,4.74,2.42,3.52,0,5.17-1.43,7.82-1.43,2.96,0,2.3,5.73,5.06,5.73v4.52a1.3,1.3,0,0,0,.54.77l0.56,0.66c0.55,0,1.86-.55,2.64-0.66,2.41-.66,2.63-3.53,5.06-3.53,1.98,0,7.04,8.27,8.58,8.27s6.83-2.32,7.71-3.42c-0.23,0-3.08-.44-3.08-0.44a1.829,1.829,0,0,1-1.88-1.65c0-.88,8.04-3.86,11.01-4.96a11.138,11.138,0,0,1-1.98,1.87c0.22,0.66,3.09,3.66-3.31,5.29,2.76,6.51,15.41,5.4,15.41,14.11l0.45-.07a5.394,5.394,0,0,1,2.2-.48c3.62,0,3.41,2.1,4.51,4.41a9.2,9.2,0,0,0,2.64,1.76c1.98,0.66,2.42,3.97,5.5,3.97,2.43,0,2.31-1.99,3.96-2.53a4.4,4.4,0,0,1,1.54-.34c0.34,0.66.34,1.55,0.77,1.99a1.341,1.341,0,0,0,0,.66l1.55,0.22c1.32-1.76,1.32-4.41,3.08-5.29-2.97-1.65-7.48-8.26-7.48-12.02,0-1.1-2.43-2.74-2.43-4.41a26.075,26.075,0,0,1,2.65-5.28c0.55,0.33,3.84-1.55,4.18-1.66,2.85-1.1,4.62-1.87,8.25-1.87,5.95,0,6.94,2.87,9.13,6.18-1.65,1.32-3.84.1-5.83,0.1-2.97,0-7.37,2.87-7.7,2.76,0.11,2.2,1.87,2.09,2.53,3.31,2.09,3.63,5.06,5.07,5.06,9.36a21.386,21.386,0,0,1,3.75-1.65c0.11,1.65,1.86,2.53,1.86,4.19h-3.3c-0.99,0-1.98,1.1-2.2,2.75a4.718,4.718,0,0,1,3.86,4.63c0,1.22-.78,1.55-0.78,2.54a4.447,4.447,0,0,0,1.1,2.31c0-.99,1.32-0.99,2.31-1.32,1.33-.44.99-0.88,2.09-1.33,2.1-.76,3.32-0.28,4.97-1.49,2.48,1.38,3.84,1.49,6.15,2.27,2.65,0.88,3.53,3.3,6.72,3.3,0.11,0.66.76,0.89,0.88,1.32,0.37,1.13.01,2.48,0.56,3.99,1.23-1.37,2.18.53,3.29,0.53,1.31,0,1.87-1.1,2.52-1.75,0.89-.89,2.21-0.89,3.09-1.77,1.87-1.88,2.09-4.74,4.84-4.74,1.1,0,.77.44,1.76,0.44,0.22,1.32,2.87.44,3.53,0.44,0.87,0,1.2,1.21,2.08,1.21a5.764,5.764,0,0,0,4.74-2.75,1.427,1.427,0,0,0,.65,0c1,0,1.44-2.64,3.75-2.64,2.2,0-.22,5.72,2.31,5.72s3.42-1.87,5.61-1.87a14.318,14.318,0,0,1,3.74.33l0.12-.55c-0.44-2.64-1.1-3.2-3.86-3.86,0.33-2.2,2.65-7.16,4.41-7.16,10.12,0,17.06-5.29,17.06-17.63,5.61-.77,5.96-7.58,9.35-7.17,8.88,1.07,5.39-5.07,7.15-6.61,4.4-3.86,11.11-3.97,16.51-7.17,0.78-.43,2.64-2.75,4.4-2.75,2.87,0,7.49,3.31,12.11,3.31,6.06,0,4.84-8.27,8.26-8.27,1.98,0,8.73,1.06,9.35,2.75,2.56,7.13,7.15,3.31,9.9,3.31,6.83,0,8.81,5.51,15.96,5.51,6.06,0,14.15-5.8,22.01-2.75,10.54,4.1,5.39-14.33,19.26-14.33,9.79,0,9.46,7.83,13.21,13.78,1.43,2.3,6.38,2.53,8.25,4.41,1.43,1.43,2.75,5.51,6.05,5.51,3.64,0,4.29-3.31,8.81-3.31v2.75c-2.42,2.43-3.3,8.27-6.06,9.92-2.53,1.44-6.96,1.78-5.5,2.75C1379.73,1238.44,1375.52,1243.16,1375.52,1243.16Zm-33.56,33.73h-0.23s-0.11-1.77-.11-2.09c-0.88-.11-2.96-1.22-2.96-2.77,0-1.32,1.86-1.43,2.31-2.74,0.99-2.98,5.72-2.98,7.92-5.19-0.89-1.21-2.53,0-4.08-.99-0.76-.44-1.2-1.32-2.41-1.32-0.89,0-.89,2.43-1.55,2.43-0.87,0-1.97.32-2.86-.23-1.31-.88-0.87-1.98-2.2-2.98-0.44-.33-2.31-0.76-2.31-1.87,0-2.31,3.2-1.54,4.73-2.64,1.32-1,3.86-2.65,4.74-4.08a2.221,2.221,0,0,1,1.76-1.43,2.875,2.875,0,0,1,2.09,2.09c0,1.76-2.09,2.53-2.09,4.52,3.08,0,5.61-3.31,9.13-3.31,1.32,0,1.87,1.21,3.53,1.21-0.56,1.11,0,1.11,0,2.43,0,1.1-1.22.99-1.22,2.32,0,0.55.33,1.86,1.11,1.86a5.664,5.664,0,0,1,1.53-.54c1.32,0,2.98.88,2.98,2.2a1.717,1.717,0,0,1-1.77,1.44v1.1a1.845,1.845,0,0,0,1.1.77c0,0.66.56,1.21,0.56,1.87,0,0.34-.99,1.76-0.99,2.54a0.917,0.917,0,0,0,.54,1.1c-0.11.55-.65,0.88-0.65,1.43h1.64c0.67-.66.89-0.66,2.2-0.99,0-1,2.76-1.11,3.41-1.32,1.55-.44,2.21-1.66,2.21-4.2,0-4.29-1.65-6.83-4.07-9.25-0.99-.99-2.09-1.98-1.87-3.86a4.8,4.8,0,0,0,3.3-1.65c0.77-.77,2.75-1.88,3.19-2.75,1.43-2.98,2.31-4.74,4.95-6.84,0,0,4.21-4.72.55-7.17-1.46-.97,2.97-1.31,5.5-2.75,2.76-1.65,3.64-7.49,6.06-9.92v-2.75c-4.52,0-5.17,3.31-8.81,3.31-3.3,0-4.62-4.08-6.05-5.51-1.87-1.88-6.82-2.11-8.25-4.41-3.75-5.95-3.42-13.78-13.21-13.78-13.87,0-8.72,18.43-19.26,14.33-7.86-3.05-15.95,2.75-22.01,2.75-7.15,0-9.13-5.51-15.96-5.51-2.75,0-7.34,3.82-9.9-3.31-0.62-1.69-7.37-2.75-9.35-2.75-3.42,0-2.2,8.27-8.26,8.27-4.62,0-9.24-3.31-12.11-3.31-1.76,0-3.62,2.32-4.4,2.75-5.4,3.2-12.11,3.31-16.51,7.17-1.76,1.54,1.73,7.68-7.15,6.61-3.39-.41-3.74,6.4-9.35,7.17,0,12.34-6.94,17.63-17.06,17.63-1.76,0-4.08,4.96-4.41,7.16,2.76,0.66,3.42,1.22,3.86,3.86l-0.12.55c0,1.87,1,1.33,2.65,1.87,1.21,0.33.66,1.77,1.32,2.43,1.65,1.65,2.86,1.65,4.95,2.31,1.87-.33,2.64-1.98,4.52-1.98,0.98,0,3.51,1.98,3.51,3.09,0,2.97-4.07,2.53-4.07,5.4,0,1.21,1.65,1.54,1.65,2.75,0,1.43-1.32,1.21-2.53,1.21v1c0.34,1.32.22,2.2,0.66,3.52,0.22,0.66,1.32.55,1.76,0.66,1.98,0.67,2.53,2.09,4.52,2.54,2.42,0.55,3.62-.12,4.95,1.21s2.42,0.88,4.07,1.65c0.88,0.44.88,1.22,1.32,2.09,0.33,0.78,1.21-.1,1.76.23,1.65,1.1,2.64,2.75,5.18,2.75h4.61c1,0,1.32-.55,1.99-0.55,0.55,0,.99,1.66,1.1,2.43,1.53-.77,1.98-2.75,4.73-2.75,2.42,0,3.52,1.31,5.39,1.31,1.54,0,5.18-3.08,5.95-3.52a9.115,9.115,0,0,0,1.32-1.32c0.88-.88,2.31.33,3.62-0.12l1-.99h0.66c0.88,3.53,3.19,3.31,5.94,4.64,0.99,1.64,2.53,2.42,2.53,4.73,0,4.41-2.86,4.52-2.86,8.6,0,0.33.11,1.1,0.44,1.1,0.88,0,1.43-.55,2.31-0.55s1.1,3.08,2.31,3.31c0,2.2,1.33,4.63,3.53,4.63,0.76,0,1.1-.23,1.75-0.23h0.67a1.046,1.046,0,0,0,.66,1.22,1.031,1.031,0,0,0,.55-0.99v-2.88a15.174,15.174,0,0,1,2.97-.65h3.52c1.54,0.76,2.75-1.55,4.4-1.55,1.77,0,2.86,1.21,4.73,1.21,0,2.87,2.2,3.75,3.86,4.3h0c1.87,0.89,3.19.22,5.28,1.22-0.11.55-.44,2.76,0.55,2.76,1.21,0,.55-1.44,1.43-2.32,0.77-.77,2.97-1.1,3.85-1.55,2.09-.99,4.18-0.54,5.5-1.87a10.564,10.564,0,0,1,1.33-2.09c1.1,0,1.65.88,2.75,0.88,5.06,0,6.27-3.09,9.35-4.85a2.537,2.537,0,0,0,1.65-1.99c2.64,0,3.41-4.07,4.41-6.16,0.66-1.33,3.63-5.74,5.28-6.07,0-2.42,1.65-3.52,1.65-6.72,0-4.74-1.1-6.5-3.08-9.48-0.34-.55-0.34-1.87-1.33-2.42Zm183.56-162.67a1.117,1.117,0,0,1-1.1-1.11c0-1.65,3.3-3.63,5.18-3.63,1.65,0,5.83,1.1,5.83,2.75C1535.43,1113.66,1526.73,1114.22,1525.52,1114.22Zm-31.14,6.83a1.191,1.191,0,0,0,1.1-1.1c0-.67-0.66-0.89-0.77-1.33h-3.63A3.8,3.8,0,0,0,1494.38,1121.05Zm-103.67-36.37-1.1-1.1a2.7,2.7,0,0,0-.88,1.65,0.763,0.763,0,0,0,.88.88c0.88,0,.99-0.99,1.1-1.65h-0.33Zm-70.98,9.15a4.924,4.924,0,0,1-2.53.77c-1.22,0-2.43-.33-2.43-1.33,0-1.1,1.33-1.65,2.43-1.65,1.53,0,2.53.33,2.53,1.65a1.9,1.9,0,0,1-.89,1.33Zm-42.15-23.49c-1.33,0-1.65-.54-1.65-1.64,0-1.77,1.32-1.77,1.98-2.43,2.52-2.53,3.51-6.61,7.92-6.61h1.43c0,1.55.55,1.55-.33,2.43,0.77-.23,1.21-1.1,1.98-1.1,1.54,0,6.05,2.85,6.05,4.4,0,2.64-5.72,3.08-7.7,2.75-0.44,0-3.85.56-3.85,0.56Zm-25.32-15.97c0.56,0,3.63,1.44,4.4,1.65-0.22,1.99-3.84,2.21-5.17,2.21-0.65,0-2.2-1.77-2.2-2.76C1249.29,1054.37,1251.6,1054.37,1252.26,1054.37Zm24.21,8.59c0,0.99-1.21,1.66-2.2,1.66-4.84,0-8.36-1.98-12.32-1.98-1.32,0-4.19-3.09-5.84-3.97,3.63-1.22,4.74-2.43,8.25-3.53-1.1,0-3.95-.22-4.62-0.22-3.08,0-5.17-.88-8.03-2.31,4.63-1.32,6.27-6.51,11.55-6.51,3.09,0,4.85,2.98,6.61,4.3-1.1.44-.88,0.22-1.32,0.11a13.839,13.839,0,0,1,0,2.21c0,0.66-1.21,1.54-2.1,1.98a5.469,5.469,0,0,1,2.32,0c1.32,0,1.98,1.11,3.3,1.11h2.2c2.2,0,2.2.76,3.64,2.2-1.1.88-.89,1.1-0.89,2.2s-1.54,1.21-2.19,1.43C1275.59,1061.86,1276.47,1062.2,1276.47,1062.96Zm-13.42,13.45a11.226,11.226,0,0,0,1.65-1.1h1.65c-0.22,1.54-.89,2.21-2.2,2.21A1.293,1.293,0,0,1,1263.05,1076.41Zm-12.11-28.88c-1.65.23-3.74,0.56-4.4-.87h4.07Zm51.18,20.4a1.769,1.769,0,0,1-1.43,1.65,2.347,2.347,0,0,1-2.2-1.33C1300.8,1067.82,1301.13,1068.37,1302.12,1067.93Zm-180.27-15.21c-1.88,1.43-2.86-.11-4.63.88-0.98.55-1.2,2.53-2.2,2.42a2.326,2.326,0,0,1-1.2-1.1h0.1c-1.65,0-2.75-.33-3.08-1.32a9.511,9.511,0,0,1,2.31-.88,7.559,7.559,0,0,1-1.98-.22,14.519,14.519,0,0,0,1.65-1c-0.99-.32-1.54-0.99-2.53-0.99-1.21,0-3.3,1.43-4.95,1.43a17.1,17.1,0,0,1-2.42-.44c0.99-1.76,6.16-2.09,8.47-2.09,2.75,0,4.29,1.43,6.38,1.43,1.66,0,2.43-1.43,4.08-1.43a9.6,9.6,0,0,1,3.3,1.1c-0.22,1.99-1.65.99-2.97,1.99a1.875,1.875,0,0,1-1.1,0v1.1Zm40.72-2.76c-1.32,0-1.87-.55-1.87-1.65,0-1.55,4.51-3.31,6.16-3.31l1.54,3.52C1167.63,1049.08,1163.34,1049.96,1162.57,1049.96Zm-3.85-.77a8.508,8.508,0,0,1,0,1.65c-0.66.99-1.77,0.56-2.75,0.56l0.55,1.32c-0.66.33-6.05,0.55-6.05,0a2.892,2.892,0,0,1,2.19-2.98,5.458,5.458,0,0,1,0-1.43h3.63a1.544,1.544,0,0,1-1.09.88A12.148,12.148,0,0,0,1158.72,1049.19Zm-14.31,6.28c-0.66,0-1.54-1.1-2.2-1.1-0.22,1.1-.66,1.1-1.65,1.1a1.008,1.008,0,0,1-1.1-.77c0-1.54,4.4-2.2,5.5-2.2a3.68,3.68,0,0,1,3.08,1.32C1145.84,1053.82,1145.95,1055.47,1144.41,1055.47Zm0-5.18c-1.32,0-3.08,1.33-4.4,1.33-0.78,0-5.29-1.99-5.5-2.1,0.65-.55.87-0.77,1.42-1.21h4.63c-1.22-.44-0.77-0.88-1.87-0.22v-1.43c3.3,0,3.41-2.21,6.6-2.21a2.01,2.01,0,0,1,1.87-1.87,2.11,2.11,0,0,1,.34,1.32,2.142,2.142,0,0,0-1,1.43c-1.76,1.1-3.96,1.77-5.07,2.87a20.077,20.077,0,0,1,6.28,1.65C1146.83,1050.51,1145.62,1050.29,1144.41,1050.29Zm-109.51,25.35a2.448,2.448,0,0,1,.12-1.99c-1.33-.21-3.64-0.1-5.06-0.21,0.22-1.99,1.42-1.43,1.64-3.1-0.77-.21-1.76-2.2-2.2-3.08a7.5,7.5,0,0,1,1.55-.21,3.933,3.933,0,0,1-2.65-1.66c-3.74,0-4.95,4.85-6.05,7.72-0.22.66-1.1,0.44-1.65,0.88-1.87,1.43-1.65,4.52-3.2,6.06-2.63-1.76-8.58-3.2-8.58-6.94a19.569,19.569,0,0,1,4.08.11c1.1-.89,2.3-0.56,3.63-0.89-0.66-.44-4.19-0.55-4.95-0.55-1.33,0-4.19,1.22-4.19-1.44,0-.98,2.53-0.98,3.09-1.09a21.843,21.843,0,0,0,5.61-2.76h-2.87a6.932,6.932,0,0,1-1.64-.99h-0.89c-0.99.55-.99,2.97-3.3,2.97-1.76,0-2.97-.65-3.52-1.75a2.61,2.61,0,0,1,.88-0.23c-1.87-.99-3.52-1.87-3.08-3.64a3.25,3.25,0,0,0-.88-0.43c-0.77,0-1.982-1.88-2.75-2.65,0.44-.55,2.75-2.64,3.85-2.64a26.656,26.656,0,0,1,5.5.44,14.284,14.284,0,0,0-1.32,1.54c1.11,0.88,2.2.88,2.97,1.65a1.578,1.578,0,0,1-.77-1.43,1.929,1.929,0,0,1,1.87-1.88c2.97,0,2.2,3.86,4.96,4.86-0.66-1.77-1.32-2.76-1.32-4.86,0-1.64.76-1.64,2.19-1.64s4.41,1.1,4.41,2.2c0,0.77-.33,1.43-0.33,2.2,0.88-.44,1.1-1.43,1.98-1.43,1.76,0,1.54,1.76,1.32,2.64,0.33,0,.77.11,1.1,0.11,1.87,0,7.71,3.31,8.81,4.63a3.776,3.776,0,0,1-1.1.11,4.017,4.017,0,0,0,1.98,0,1.8,1.8,0,0,1,0,1.66h3.52c0,3.41,3.19,2.53,4.18,3.96C1038.87,1072.89,1037.66,1074.75,1034.9,1075.64Zm14.65-18.84c-2.65,1.76-8.15,5.62-11.35,5.62a3.921,3.921,0,0,1-3.84-1.99h-6.28a1.857,1.857,0,0,1-1.42-1.76,18.767,18.767,0,0,1,2.2-.11c0.98-.33,2.2-0.33,2.74-0.55-0.43,0-4.94-.33-5.17-0.33-1.87,0-4.07,1.32-3.85-1.22a3.791,3.791,0,0,1-1.65-2.64h1.65a2.306,2.306,0,0,0,2.2.33v-0.55h1.88l-0.56-1.1h3.09a14.72,14.72,0,0,0,4.4,2.2c1.31,0,2.2-2.09,2.75-2.54h1.32a11.2,11.2,0,0,0,0,2.76c0.99,0,1.65-1.1,3.3-1.1h3.63A6.117,6.117,0,0,1,1049.55,1056.8Zm-51.51,6.94c1.43,1.88,2.97,2.31,3.74,4.73-2.2-.54-5.615-3.85-3.412-4.73v0.33Zm-61.631,134.12a6.377,6.377,0,0,0,3.189-1.21,2.361,2.361,0,0,1-.658-1.43c0-.77,2.2-2.1,3.3-2.1h1.87c2.529,0,3.743,2.65,3.743,4.52,0,0.89-1.982.78-1.982,1.66v3.74c0,0.89.768,2.21-.109,3.09-0.662.66-1.762,0.55-2.863,0.55-1.759,0-3.083,1.88-3.961,2.43a4.477,4.477,0,0,1-2.092.44,2.844,2.844,0,0,1-2.75-2.54c0-2.75,2.75-2.97,3.192-5.62-1.1-.55-2.094-1.21-2.094-2.31C935.2,1197.64,936.077,1197.86,936.409,1197.86Zm7.593-16.2a1.545,1.545,0,0,1-.659-1.32c0-.66,1.872-1.21,2.753-1.21A2.425,2.425,0,0,1,944,1181.66Zm23.331,21.93a1.434,1.434,0,0,1,1.43-.43,2.219,2.219,0,0,1,2.313,2.09c0,1.99-2.644,2.98-3.525,4.41a6.958,6.958,0,0,0,2.2.44v0.77c-0.99.99-1.76,1.66-3.079,1.66h-4.4c-1.1,0-4.071.99-5.722,0.99-0.772,0-1.212-.67-1.983-0.67a1.829,1.829,0,0,0-1.759,1.88h-1.542a2.023,2.023,0,0,0-1.541.88h-0.77v-0.66a34.043,34.043,0,0,1,3.853-4.08c1.539-.44,3.742.11,3.742-1.43,0-.22-0.22-0.56-0.22-0.78a2.446,2.446,0,0,1-1.983,1.11c-1.431,0-1.872-1.33-3.081-1.33-0.659,0-.552.56-1.1,0.56a0.712,0.712,0,0,1-.547-0.56c0-1.65,3.079-1.76,3.079-3.41,0-1.44-.882-1.99-0.882-3.2,1.982,0,4.4-.99,4.953-2.09v-1.66c-1.1.12-2.639-.11-2.639-1.21a2.545,2.545,0,0,1,.768-1.54c-0.33,0-.658-0.11-0.987-0.11-1.1,0-1.653.55-2.535,0.55-0.987,0-1.757,0-1.757-.88s1.1-1.44,1.1-2.31c0-1-.326-1.22,0-2.1a3.425,3.425,0,0,1-1.869-.55,1.286,1.286,0,0,0,0,1.65h-0.883v-1.75a0.862,0.862,0,0,1,.443-0.79v-0.99c-0.661-.1-1.651-0.43-1.651-0.88a4.123,4.123,0,0,1,.769-1.43v-0.88c-1.649-.33-2.532-0.66-2.532-2.1h1.763a0.968,0.968,0,0,0,.769.99,0.725,0.725,0,0,0,.439-0.65,1.1,1.1,0,0,1-.546-0.66,1.386,1.386,0,0,1,1.539-1.32,15.788,15.788,0,0,1,.44-1.88,2.186,2.186,0,0,1,1.762-1.43h3.19a1.671,1.671,0,0,1,1.1.99c0,1.54-2.419,1.32-2.75,2.86a1.442,1.442,0,0,0,.331.88h6.494c0.436,3.09-2.972,4.41-2.972,6.73a1.2,1.2,0,0,0-.882.88c1.1,0.33,1.651-.11,2.533.11,2.089,0.66,1.757,3.3,3.081,4.63,1.76,1.76,4.623,2.54,4.623,5.18,0,0.88,1.208,1.43,1.208,2.31a0.838,0.838,0,0,1-.549.78v0.77a4.844,4.844,0,0,0,1.319-.77Zm-16.068-6.28a1.274,1.274,0,0,0-.771,1.33h1.212c0-.56.108-1,0.108-1.33h-0.549Zm-28.5-50.47a11.436,11.436,0,0,1-4.951,3.97c-2.641.88-4.733,2.75-8.474,2.75a28.783,28.783,0,0,1-9.906-1.98c-1.538-.45-2.42-1.99-4.841-1.99a2.245,2.245,0,0,1,.989-0.55,15.068,15.068,0,0,1,.55-3.31c-1.758-.44-3.629.67-4.733-0.44a22.159,22.159,0,0,0,5.725-.99,1,1,0,0,1-.442-0.88c-1.319,0-5.392-1.21-5.611-2.42a2.515,2.515,0,0,1,2.2.21v-0.88c0.877,0,1.1-1.21,1.978-1.21h0.881c0.111,0.66.55,0.99,0.662,1.66-0.112.77,0.881,2.2,1.652,2.2a8.346,8.346,0,0,0,1.978-.66c-0.219-.77-0.328-0.99,0-1.43a2.168,2.168,0,0,0,1.432.99l2.64-.67a4.913,4.913,0,0,1,1.543.78,3.654,3.654,0,0,1,0-1.1c1.651,0,2.528.32,3.522,0.32,1.429,0,2.75-1.32,3.741-.32a3.035,3.035,0,0,1,.439-1.66c0.773,0.22.773,0.34,1.211,0,0,1.33.882,1.44,1.983,1.44,0.988,0,1.65-.56,2.641-0.56a1.484,1.484,0,0,0-.663,1c0,3.19,4.073,2.42,4.073,5.5ZM732.918,1324.39c-0.771,1.32-2.86,1.32-4.181,1.32-2.532,0-4.294-.77-6.383-0.77v-0.66a1.171,1.171,0,0,0,1.1-1c-1.651-.76-3.411-0.65-3.742-2.31-0.881,0-.768-0.77-1.211-0.99-0.877-.45-1.429-0.11-2.31-0.11-1.542,0-2.312-1.65-3.854-1.65h-3.189c-0.661-.45-0.55-0.89-0.218-1.22a1.92,1.92,0,0,0-1.544-.33,10.937,10.937,0,0,0-6.163,2.65h-0.988c1.758-2.98,4.069-4.86,9.022-4.86,4.842,0,7.155,2.77,10.786,2.77,0.77,0,1.653,1.1,1.872,1.32a10.347,10.347,0,0,0,6.822,2.75,1.8,1.8,0,0,0,0,.77l1.652,0.11C731.6,1322.52,732.147,1324.06,732.918,1324.39Zm-26.633-5.63a2.837,2.837,0,0,1,0,1.66c-0.109,0-1.539.22-1.539,0a0.97,0.97,0,0,1,.988-0.99v-0.77h0.224Zm19.259,11.69a1.291,1.291,0,0,1,.993.99,21.04,21.04,0,0,1-3.635.66,1.785,1.785,0,0,1-1.758-1.65,1.016,1.016,0,0,1,1.1-.66,11.679,11.679,0,0,1,3.522.88Zm34.779,0.33a1.742,1.742,0,0,1-1.762.66c-1.321,0-2.75-.1-2.75-1.21,0-.56.88-0.67,1.211-0.67S759.994,1330.12,760.323,1330.78Zm-11.444-3.09c1.1,0.89,2.2,1.33,2.969,2.43h-4.07a3.965,3.965,0,0,1-1.984.88c-0.66,0-.549-0.55-1.1-0.55-1.431,0-1.321,1.99-2.533,1.99-0.99,0-.769-1.1-1.319-1.44-0.991-.66-3.629-0.33-4.955-0.33-0.769,0-.769.33-1.318,0,0,0.33-.11.55-0.11,0.88a2.04,2.04,0,0,1-1.321-1.76,1.048,1.048,0,0,0,.549-0.45c2.532,0,3.632.56,4.952-.1a2.99,2.99,0,0,1-.769-2.31,1.443,1.443,0,0,1-1.431-1.22,1.066,1.066,0,0,1,.88-0.77c0.99,0,1.652.77,2.643,0.77,1.43,0,2.092-.44,3.3-0.44,3.521,0,4.183,1.87,6.164,2.87Zm26.3,28.11v-0.77h-0.989c-0.663,0-1.324,1.1-1.324,2.2,0,0.34.661,0,.992,0C774.516,1357.23,774.961,1356.24,775.18,1355.8Zm34.557,32.51a4.379,4.379,0,0,0,2.309.99c0.223,1.43,1.212.22,1.762,0.22a1.187,1.187,0,0,1,.771,1c0,0.99-1.652,3.52-2.971,3.52-1.652,0-4.51-1.98-4.51-2.97,0-1.66.878-2.76,2.2-2.76A0.6,0.6,0,0,0,809.737,1388.31Zm-28.172,181.08c0.769,0,1.208-1,1.978-1a10.633,10.633,0,0,0,1.982,0v1c0,0.88-1.87,1.32-2.752,1.32a1.524,1.524,0,0,1-1.54,1.32,0.944,0.944,0,0,0-.772,0v-1.32C781.341,1570.71,781.123,1569.39,781.565,1569.39Zm-3.3-.33a1.557,1.557,0,0,1-.881-1.22,7.618,7.618,0,0,0,3.852,0v1c-1.542.77-2.312,1.98-3.963,2.75l-0.55-.66C777.162,1570.05,778.038,1569.94,778.262,1569.06Zm-44.463-35.6s0.661-3.31,1.32-3.31c0.992,0,1.321.88,1.321,1.76a2.516,2.516,0,0,1-.441,1.22v3.3h-0.987a1.9,1.9,0,0,1-1.213-1.54v-1.43Zm-10.345-158.05v-0.65c0-.88-0.659-1.55-0.659-2.43,0-1.33.55-1.76,0.55-2.86,0-2.32-1.98-1.99-1.98-3.97,0-1.54,2.2-2.21,2.752-3.09a1.4,1.4,0,0,0,1.319,0v-0.66a0.849,0.849,0,0,1,.659-0.55c0-1.11,1.1-1.44,1.761-1.88s0.77-1.87.991-2.75c0.549-1.77,1.542-2.1,2.97-2.54,2.643-.87,4.4-1.32,7.155-2.2,1.432-.45,1.761-2.09,3.19-2.09,0.551,0,.991,1.21.991,1.32a1.237,1.237,0,0,1-1.1,1.32,39.011,39.011,0,0,0-.993,4.52c0,1.21.609,3.33,1.821,3.33,0.44,0,1.041-1.34,1.041-1.79,0-1.32-1.318-2.09-1.318-3.41,0-1.66,1.757-1.44,2.751-2.1H748c-0.439-1.32-2.092-.77-2.092-2.09l1.93,0.02c0.438,1.77,2.913,2.4,4.563,2.73a1.909,1.909,0,0,0,1.322,1.99h5.943c0,0.99,1.324,1.21,2.2,1.21,1.652-.22,2.748-0.22,3.408-1.54,0.111-.34,2.42-0.34,2.752-0.56a24.737,24.737,0,0,1,3.082.34,1.83,1.83,0,0,1-1.65.22v0.88c0.767,1.54,3.082,1.87,4.733,2.43,1.427,0.43,1.1,2.09,1.539,3.52h3.082c2.092,2.09,3.08,1.76,4.4,4.51a2.051,2.051,0,0,0,1.651.67c0.771,3.09,5.393,2.75,8.366,3.31h2.859a11.767,11.767,0,0,0,3.634,1.21V1372h0.658c1.763,0,4.072,3.63,5.944,4.08,0,1.32,1.432,4.84,1.983,6.06,0.55,1.1,1.978,1.1,1.978,2.2-1.759,2.21-4.952,3.31-4.952,6.62,0,1.1.991,0.99,1.54,1.21a3.382,3.382,0,0,1,1.874,2.53h2.641c0,0.33.22,1.21,0.55,1.21,0.439,0,.878-0.77,1.209-1.31,1.1-1.77,2.421-4.08,4.183-4.08,1.982,0,5.943,2.09,7.375,2.97,0.88,0.55,1.87.33,2.089,1.21a7.764,7.764,0,0,1,.22,2.75h0.77c0.992-.43,1.432-1.21,2.424-1.21,2.311,0,2.751,1.77,4.949,1.77l4.184-.56a26.034,26.034,0,0,1,5.171,1.77c0.99,1.66,4.4,4.74,6.164,5.29,1.54,0.44,2.531-.22,4.07.22,2.2,0.67,2.754,2.98,2.754,5.29,0,8.15-4.473,10.32-7.444,14.83-0.659.99-1.14,1.27-1.8,2.26-1.1,1.64-2.312,1.86-3.411,2.97-1.651,1.65-.017,5.21-0.017,7.86,0,1.98-.755,3.82-0.755,5.25a3.864,3.864,0,0,1-.549,1.33c-0.442.55-1.431,1.65-1.431,2.53a15.023,15.023,0,0,1-.551,3.75c-1.651,2.54-2.2,3.64-3.851,5.84-0.441.66-.331,1.99-0.551,2.43a6.331,6.331,0,0,1-4.842,2.86c-2.09,0-3.742-.11-5.392.66a3.732,3.732,0,0,0-1.1,1.21c-2.641,2.65-5.391,1.1-7.373,4.19-0.882,1.43-2.313,1.43-3.191,2.32-1.432,1.43-1.211,2.97-1.211,5.07v5.18c-2.2,1.1-3.3,2.97-4.4,5.29v-0.11c-0.767,1.43-.658,2.2-1.537,3.64-1.983,2.97-4.184,3.3-6.055,6.16-2.2,3.31-3.046,8.81-8.106,8.81-1.764,0-4.218-1.2-4.991-1.2-1.539,0-2.971-1.32-4.623-1.32a0.872,0.872,0,0,0-.879.55c0,0.99,1.65,1.53,1.981,1.87,0.882,0.88.882,2.1,1.323,3.42,0.328,1.21,2.091,1.21,2.091,2.42a4.876,4.876,0,0,1-.545,2.94,17.849,17.849,0,0,1-2.869,3.35c-1.871,1.86-4.181,1.32-6.824,2.2-1.758.55-5.392-.66-6.382,0.33-1.431,1.43-.33,4.74-1.1,6.29v1.1c0,0.54-1.762,1.32-2.532,1.32-2.31,0-2.752-1.55-4.953-1.55a1.223,1.223,0,0,0-1.1,1.33c0,1.54,1.324,4.41,2.312,4.41a5.063,5.063,0,0,0,1.541-.78c0.442,0.44.991,0.55,0.991,1.11a1.943,1.943,0,0,1-1.1,1.43c-1.32,0-1.76-.99-2.864-0.99a1.52,1.52,0,0,0,1.212,1.65c-1.981,1.99-1.981,3.97-2.639,6.72-0.223,1.21-2.2,1.32-2.976,1.43a4.214,4.214,0,0,0-3.3,3.86c0,4.3,4.949,2.76,4.949,6.18,0,3.08-2.751,3.42-4.29,4.95-0.882.89-.551,2.32-1.211,3.75-0.774,1.54-2.533.88-3.521,1.87a6.5,6.5,0,0,0-1.875,4.96,2.973,2.973,0,0,0,1.653,2.54c1.981,1.1,1.868,6.17,3.3,7.6,2.42,2.43,5.392,3.42,8.363,4.85-0.439.66-1.1,0.33-1.759,0.33-1.65,0-4.4,2.1-5.391,2.1h-1.213c-0.332,0-.771.44-1.1,0.44h-3.076c-2.534,0-1.652-2.97-3.414-3.53-1.653-.55-4.072-0.55-4.072-2.53h-2.093a1.427,1.427,0,0,1-1.21-1.44c-3.081,0-3.961-1.54-5.394-2.97a4.163,4.163,0,0,1-.987-1.1c0-.99,1.977-0.89,2.088-1.88a3.876,3.876,0,0,1-.879-0.55,3.98,3.98,0,0,0,.768-1.87c0-2.65-2.971-2.2-2.971-4.52v-1.55c0-2.42-1.651-6.28-1.651-8.15,0-1.98,2.532-2.76,2.532-4.51,0-.88-1.319-2.66-1.539-3.86v-1.11h0.108a1.123,1.123,0,0,1,.992-1.21c1.981,0,1.209,1.99,2.859,1.99l3.633-16.31v-1.66a3,3,0,0,0-.991,0c-0.768.33-.879,1.21-1.649,1.21-0.88,0-1.542-2.53-1.542-3.75,0-2.09.769-2.98,1.1-4.96,0.77,0,1.1-.32,1.1-0.65a1.881,1.881,0,0,0-.659-1.22c-0.441,0-.55-3.08-0.55-3.85,0-2.53,1.54-5.08,2.529-6.62,0.443-.77.661-2.31,1.212-3.09,0.33-.43.881-0.33,0.991-0.77,0.77-2.53.77-4.4,1.429-7.05l-0.11-8.26c-0.659-1.99.551-3.54,0.551-5.29,0-4.19,2.532-6.95,2.532-10.69v-1a34.23,34.23,0,0,1,.77-3.86v-4.84c0-1.55.992-4.52,0.992-6.28a81.971,81.971,0,0,0-.882-8.83,9.483,9.483,0,0,0-4.732-5.29c-1.651-.77-2.86-0.54-4.073-1.76a6.812,6.812,0,0,0-3.521-2.2c-3.083-.99-4.622-2.54-6.6-4.52-0.879-.88-0.44-2.1-0.44-3.42,0-1.76-1.651-2.64-2.09-4.19-0.881-2.64-3.082-4.63-3.853-7.05a38.443,38.443,0,0,0-2.422-6.06c-0.329-.66-1.1-0.44-1.428-0.77-0.772-.77-0.991-2.31-1.323-3.08-0.33-.67-1.211-0.45-1.65-0.89-1.211-1.21-2.751-3.41-2.751-5.4a5.786,5.786,0,0,1,1.212-3.31c0.99-1.65,2.97-2.09,3.408-3.86-0.988-.66-0.88-0.1-1.651-0.1-1.539,0-1.757-2.21-1.757-3.75,0-2.53,2.776-2.09,2.308-6.94,2.972,0,3.742-2.98,4.624-4.75,1.212-2.42,4.071-1.64,4.734-4.62a1.8,1.8,0,0,1-1.1-1.1l0.44-.88v0.1Zm-2.859-67a1.365,1.365,0,0,1,1.208,1.53,0.705,0.705,0,0,1-.55.56c-1.1,0-1.1-1.21-1.1-2.09A0.6,0.6,0,0,1,720.6,1308.41Zm-2.094-5.4a2.043,2.043,0,0,1,1.542-.89,1.547,1.547,0,0,1,1.322.89A24.547,24.547,0,0,1,718.5,1303.01Zm5.5,1.32c-0.33.11-.658-0.55-0.549-0.89Zm10.567,16.64v0.67a0.648,0.648,0,0,0,.442,0,2.706,2.706,0,0,0,1.759-.67v-0.99A2.16,2.16,0,0,1,734.57,1320.97ZM722,1277.2c-5.156,2.92-11.747,5.01-11.747,13.02,0,3.64,3.08,4.74,3.08,8.27v0.55c0.332,1.32,1.321,2.42,1.321,4.4,0,2.32-.55,4.41-2.421,4.41-1.648,0-1.542-1.76-2.2-2.75-1.322-1.76-2.423-2.31-3.3-4.08-1.761-3.52-.441-10.25-5.283-10.25-0.988,0-1.43,1.44-2.42,1.44-1.983,0-3.19-2.54-5.835-2.54-1.538,0-1.87.88-2.748,0.88a1.056,1.056,0,0,1-.773-0.88c-1.76.44-4.073,0.22-5.943,0.88,1.1,0.33.881,0.33,1.543,0-0.111,1.66-1.1,2.65.219,3.53-3.081,1.54-5.723-2.2-7.923-2.2-0.663,0-.99.87-1.651,0.87-1.212,0-1.87-1.1-3.084-1.1-3.189,0-4.729,2.76-6.051,4.08-0.88.88-1.872,0.11-2.972,0.55-2.421.88-3.85,3.86-3.85,7.16,0,0.34.549,0.78,0.549,1.11-1.871-.22-4.621-0.77-5.5-1.65-3.521-3.53-3.414-11.57-9.906-11.57-2.42,0-1.759,3.08-3.848,3.08-2.314,0-4.075-3.75-4.954-5.29-1.871-3.19-3.963-3.64-7.706-4.63h-2.2v1.32h-9.139l-11.772-3.85h-6.931c-1.652-3.31-7.267-5.63-11.227-7.16-0.88-.34-0.551-1.55-0.88-2.43-1.54-3.86-4.624-5.18-4.071-9.7-2.312-.33-4.719-5.22-6.606-8.49-0.547-.95.44-1.65,1.1-2.09-1.207-2.42-.04-6.49-1.1-9.26-1.023-2.68,1.871-8.93,1.871-12.35,0-2.42-2.752-3.41-2.752-5.83,0-.67,1.211-0.77,1.651-0.77a3.468,3.468,0,0,1,3.194,1.87,6.043,6.043,0,0,0,1.539-2.98c0-1.1-.992-1.42-1.432-2.53h88.042v-1.32c1.433,1.1,1.324,1.98,2.753,2.75h5.5c2.2,2.21,5.065,2.21,9.136,2.21-2.975,1.98-6.053,3.08-8.587,6.27h1.652a7.752,7.752,0,0,1,1.981-.77,1.416,1.416,0,0,0,1.652,1.1c1.871,0,1.979-1.43,2.971-1.43,1.208,0,3.19-2.09,4.842-2.42,0,1.54-.77,1.87-1.214,2.75h2.2a1.93,1.93,0,0,0,1.873,1.33c1.429,0,1.871-1.1,3.08-1.1,2.641,0,3.962,1.43,6.273,1.43v1.32c-1.65.55-4.071,0-4.953,0-2.419,0-6.824,3.09-7.042,5.3,1.1-.67,1.541-1.55,2.642-1.55-1.873,2.42-2.75,8.05-2.75,10.91a2.513,2.513,0,0,0,2.528,2.2c1.651,0,2.2-3.31,2.2-4.74v-3.52c0-1.39-.03-4.73,1.189-4.8,4.015-.24,2.171-2.92,3.984-2.92,0.881,0,4.952,1.99,4.952,3.31,0,1.54-.881,2.54-1.213,4.08,1.321,0,1.1-.44,2.2-0.77,0.442,1.76.442,2.53,1.544,3.41-1.32,1.33-2.424,2.1-2.424,3.75,0,1.1.441,2.75,1.542,2.75,2.861,0,8.033-2.75,10.236-3.86a12.855,12.855,0,0,0-1.1-2.64c0.77,0,.77-0.11,1.319-0.11,3.194,0,10.209,1.06,10.237-3.08,0.249-.12,4.239-4.12,4.925-4.67,0.548-.44,3.168-0.29,5.752-0.29h2.747a19.77,19.77,0,0,0,2.784-.4c1.1-.14.784-0.62,1.178-1.03,1.993-2.03,1.945-5.75,4.736-7.62,1.323,1.66,3.387-.75,4.267.8,1.763,3.08.353,7.59,2.447,10.22a3.965,3.965,0,0,1-3.524,1.88c-1.322,0-1.431-.55-2.531,0-1.763,1.77-5.5,2.98-5.5,7.17a1.071,1.071,0,0,0,.442.99c0,0.55.44,1.98,1.1,1.98a5.793,5.793,0,0,0,1.212-.77v0.77c-1.323.33-3.193,0.77-3.634,0.33-2.2,1.66-5.941,1-8.145,2.43h1.1c0.991,0,1.981-.56,2.752,0a10.971,10.971,0,0,1-4.18.55c-0.331,0-.664-0.11-0.994-0.11a0.94,0.94,0,0,0-.657.77,2.706,2.706,0,0,0,.987,1.32c-0.219.88-2.308,4.74-3.081,4.74a2.052,2.052,0,0,1-.771-0.88l-0.549.55c0.222,0.88.992,1.22,0.992,2.1,0,0.66-2.2,4.51-2.532,4.51a0.73,0.73,0,0,1-.441-0.66v-1.21c0-.77-0.991-2.54-1.21-3.64a3.652,3.652,0,0,0-.111,1.44c0,0.76.551,2.75,0.551,3.86s-0.659.98,0,1.65h0.77v1.1a1.467,1.467,0,0,1-1.456,1.34,1.811,1.811,0,0,0,1.513.96c-0.221,1.22-.717,1.12-1.706,1.12v0.88l1.291,0.77a2.6,2.6,0,0,1-1.291,1.21c-1.3.25-1.874,1.1-2.752,1.32-1.32.44-1.211,0.77-1.869,1.44Zm33.376-41.21v-0.32a3.666,3.666,0,0,0,1.1,0c0.658,0,3.411.44,4.4-.22s0.987-2.09,2.64-2.21c0,1.55-.113,1.66,1.65,1.66-2.532.22-6.492,1.98-6.492,4.4,0,0.99,1.54,2.76,2.2,2.76,0.877,0,2.92-2.96,5.119-3.62,0.552-.11,8.085-2.99,8.085-3.87,0-1.21-2.863-1.33-3.522-1.33-3.191,0-8.256-3.09-8.256-5.84,0-.66.881-1.54,1.1-2.65-0.549,0-1.759-.32-2.75-0.32,0.661-.88,4.622-1.44,4.622-3.64,0-2.1-3.412-1.65-5.723-1.65-4.842,0-7.042,3.41-10.343,3.85,1.43-2.97,3.741-1.98,6.163-4.41,1.538-1.53.44-2.53,2.751-3.31,4.179-1.31,6.6-.54,10.785-0.54,5.5,0,8.508,1.8,11.776-2.43,1.589-2.06,10.453-2.53,10.453-6.06,0-2.53-.88-3.63-1.869-5.29-0.883,0,.39-1.08-0.883-1.65v-1.33c-2.528,1.44-7.813,3.31-10.452,3.31a1.678,1.678,0,0,1-1.1-.44c2.2-1.21,8.315-2.05,8.974-4.15,0.111-.55-0.83-0.7-0.943-1.25-2.64.33-8.252-.89-8.252-4.63v-0.33c-2.42,0-3.851-1.54-5.284-2.64,0.551-.33,1.652-0.67,1.652-1.99,0-1.1-.99-1.98-0.771-3.09-0.992-.32-4.563-2.6-3.632-4.62,1.15-2.51-3.522-3.09-3.852-6.07a6.368,6.368,0,0,1-1.871-1.43c-0.771.55-2.53,1.55-2.53,3.09,0,1.65-3.522,5.73-6.273,5.73-1.981,0-2.313-2.43-3.632-2.43-1.872,0-2.64-5.4-2.971-7.71-0.44-3.09-6.385-.88-6.385-4.96-3.08-.44-3.742-4.19-6.822-4.19-1.431,0-1.431,1.11-3.082,1.11-3.192,0-5.173-1.88-8.256-1.88-1.649,0-3.3.77-3.3,2.75,0,1.11,3.882,2.72.332,4.97-1.4.88,2.006,3.31,2.2,4.95,0.385,3.27-2.725,4.09-4.158,4.65,2.533,4.3,6.357,5.72,6.357,12.99,0,1.98-6.6,6.94-8.8,7.38,3.822,1.95,2.313,7.94,3.853,9.81-0.439.67-1.873,1.44-1.983,2.65-1.32,0-2.271,2.15-3.3,1.32-2.725-2.19-6.6-5.62-6.6-8.82,0-3.52.658-6.28-2.422-8.26h-7.154c-4.072-2.98-8.7-4.75-13.537-6.62-0.879-.32-3.413-2.2-4.953-2.2-1.652,0-2.419,1.65-4.073,1.65,0-2.64-1.761-8.81-4.182-8.81-1.1,0-1.65.88-2.748,1.1,0.44-1.32,0-1.77,0-4.96a12.228,12.228,0,0,1,3.85-9.59c0.882-.88,2.752-5.18,3.633-5.51,1.868-.66,5.171.44,5.171-2.2,0-1.66-4.214-1.79-5.751-2.67,0.987,0.33-2.341-1.92,6.6.83,2.315,0.71.913-2.35,2.233-2.35h2.421c2.64,0,4.072-2.76,5.831-4.08v-1.66c-3.741-.87-7.482-0.32-9.133-3.63h1.982c1.429,0.88,2.859,2.53,4.949,2.53,1.764,0,4.955-2.31,4.955-3.63,0-.44-1.651-2.42-0.771-2.42,2.421,0,3.3,2.2,4.841,2.2,0.994,0,1.652-.88,3.633-0.88-0.55-.67-0.026-2.62,1.321-0.56,0.725,1.11,6.385-3.74,6.385-5.17,0-1-2.532-2.1-2.532-2.77,0-.76-1.488-2.51,1.98-4.18,0.44-.99,0-0.88,0-2.75-3.523,0-2.642-2.76-7.154-2.76-0.992-.11-1.762-0.77-2.751-0.77-1.32,0-2.752.88-2.752,2.21,0,1.43,1.652,1.98,1.652,2.97,0,1.1-2.534,1.1-3.084,2.2-0.878,1.88-.585,3.35-2.171,5.39-2.478,3.16-5.749-1.97-5.749-3.18,0-1.43,1.871-1.11,1.871-2.76,0-.77-3.194-3.86-4.074-3.86-3.193,0-.991,4.74-4.4,4.74,0-1.87-.217-3.19-2.529-4.29a4.17,4.17,0,0,1,1.1-1.33c-1.758-1.1-4.184,0-5.5-1.65,0.771-.44,2.753-1.21,2.753-2.65,0-2.09-3.247-2-3.3-3.64-0.113-3.43-2.531-5.62-6.824-5.72-2.1-.05-1.208,1.31-1.1,2.42-1.321.33-3.081,0-3.081,1.66,0,1.1.88,1.64,0.88,2.75s-1.431.99-1.431,2.53c0,3.65,7.485,1.44,7.485,5.18a22.271,22.271,0,0,1-.881,3.31c0.771-.44,1.43-0.66,2.311-1.1,1.431,4.52-5.833,2.31-5.833,7.71-3.607.98-.771-2.64-1.651-3.85-0.329-.56-3.3-1.33-4.952-1.33-1.981,0-2.75,1.22-2.75,3.53-1.872-.22-3.084,0-9.357,0-5.942,0-12.875-2.09-14.3-6.61-1.982.55-8.586,0.66-8.586,3.08a1.182,1.182,0,0,0,1.394,1.19,13.641,13.641,0,0,0,5.979-1.73c0.443,3.63-5.171.66-5.171,4.4,0,0.77,1.212,3.3.661,3.3-2.2,0-2.641-2.75-4.513-3.63l-1.653-.78h-7.041c-2.2,0-3.633.89-6.055,1-4.355.2-4.355-1.4-4.355-1.73,0-.99,3.364-0.58,4.026-1.25-3.063-4.26-2.512-3.57-8.806-3.08-6.692.52-10.012-4.96-16.725-4.96-2.09,0-2.973,1.43-4.735,1.43-1.207,0-2.419-2.09-2.639-2.97-2.093.44-2.093,2.86-4.291,2.86-2.1,0-5.062-4.96-5.723-4.96-2.2,0-1.431,3.2-3.742,3.2a2.226,2.226,0,0,1-1.984-1.54,41.859,41.859,0,0,0-7.7,2.2c-1.209.22-4.1,2.33-5.06,1.43-2.881-2.69-2.375.74-3.414,0.77-7.169.26-2.2,2.87-3.191,2.87a24.156,24.156,0,0,1-12.215-3.3,5.364,5.364,0,0,1-1.544-1.44c-0.767.45-.216,0.22-1.316,0v47.72c1.428,1.43,4.73-.44,6.05,1.66,0.994,1.54,3.3,4.41,5.5,4.41,1.54,0,1.54-2.32,3.081-2.76,0.661-.22,1.319,0,2.091-0.55,3.3,3.31,4.954,4.52,7.813,8.81,0.22,0.44,1.1.67,1.433,1.66a10.16,10.16,0,0,0,2.2,4.18c0.663,0.67,1.981.34,2.641,1.22,0.991,0.99,2.864,1.54,2.864,3.85,0,1.22-1.539,1.43-1.539,2.21,0,0.55.658,0.88,0.658,1.54,0,1.44-.444,4.41,1.1,4.86a4.456,4.456,0,0,1,2.422.88c0.99,0.98-.219,2.42,1.1,3.3a20.345,20.345,0,0,1,2.969,2.1c0.771,2.53.994,5.51,4.735,5.51,0.549,2.2,4.4.76,5.281,3.63,0.333,1.1,3.08,1.32,4.181,2.42a5.713,5.713,0,0,0,1.226.68c0,0.01-.016-0.01-0.016-0.01h88.042v-1.32c1.433,1.1,1.324,1.98,2.753,2.75h5.5c2.2,2.21,5.065,2.21,9.136,2.21,1.429-.44,1.648,0,2.859-0.56,1.1-.55.663-2.31,1.764-2.31,1.32,0,2.2,1.98,2.64,2.43a3.984,3.984,0,0,0,.11-1.55h0.88c0.661,0,5.283,3.75,5.5,4.18,0.659,1.33,0,2.43.88,3.31,2.53,2.54,5.943,1.99,8.695,3.75h2.86c1.321,0.88,2.971,1.99,2.971,3.64a1.168,1.168,0,0,1-1.1,1.32c-1.32,0-2.642-1.43-3.08-1.87-0.442,1.76-1.429,7.05-2.97,7.05-1.32,1.33-2.424,2.1-2.424,3.75a2.465,2.465,0,0,0,1.651,1.32c0.993,0,1.1-.66,1.543-1.1,0.988-.99,2.638-0.88,4.18-0.88,1.432,0,2.085.78,2.635,0.45,0.691-.35,1.3-0.66,1.769-0.9a15.238,15.238,0,0,0-.66-1.77c-0.109-.44-0.662-0.65-0.662-1.09,0-.55,1.1-0.77,1.434-0.88,2.418-.78,7.59-2.09,10.342-2.09,0.249-.12,4.239-4.12,4.925-4.67,0.548-.44,3.168-0.29,5.752-0.29h2.747a19.77,19.77,0,0,0,2.784-.4c1.1-.14.784-0.62,1.178-1.03,1.993-2.03,1.945-5.75,4.736-7.62,1.323,1.66,3.387-.75,4.267.8,1.606,2.81.579,6.8,1.967,9.49ZM524.039,1122.92v47.72c1.428,1.43,4.73-.44,6.05,1.66,0.994,1.54,3.3,4.41,5.5,4.41,1.54,0,1.54-2.32,3.081-2.76,0.661-.22,1.319,0,2.091-0.55,3.3,3.31,4.954,4.52,7.813,8.81,0.22,0.44,1.1.67,1.433,1.66a10.16,10.16,0,0,0,2.2,4.18c0.663,0.67,1.981.34,2.641,1.22,0.991,0.99,2.864,1.54,2.864,3.85,0,1.22-1.539,1.43-1.539,2.21-0.55,0-.55.11-1.1,0.11-1.873,0-4.625-2.09-4.625-3.31v-1.65c0-1.65-1.32-1.65-3.3-1.65a1.714,1.714,0,0,1-1.978-1.66c0-.88,1.65-0.99,1.65-1.87v-1.43c-2.09.11-1.539,1.43-2.974,1.43a2.474,2.474,0,0,1-1.65-1.65c0-1.33.771-1.76,1.1-2.32-0.55-.55-1.541-1.54-1.98-0.77a4.213,4.213,0,0,1-3.3-1.65c-0.331.88-.771,1.98-1.651,1.98-2.313,0-3.853-3.19-5.173-4.18-2.86-2.1-6.6-1.99-9.9-3.87h-6.053c-3.632-1.21-8.475-1.65-10.345-5.51-1.321.56-3.522,1.11-4.513,1.66a3.223,3.223,0,0,0,1.1,1.54c-1.43,2.2-8.472,6.18-11,6.18a1.1,1.1,0,0,1-1.1-.78,1.034,1.034,0,0,1,.882-0.88c-0.552-.77-0.114-0.77-0.114-1.32,0-2.42,1.653-4.3,4.843-5.29,0-.33.112-0.77,0.112-1.11h-1.321c-2.643,0-9.905,6.07-9.905,9.7v1.66c0,2.53-2.423,3.42-4.951,4.41-1.434.55-1.874,1.65-2.75,2.75-1.652,2.1-5.394,3.19-7.156,4.96-1.651,1.65-5.613,2.87-8.806,3.31-3.962.66-6.161,5.29-10.783,3.96,1.319-2.09,3.413-1.21,5.281-2.31,1.323-.77,2.311-2.97,3.524-3.64,1.869-1.1,3.96,0,5.281-1.65,1.871-2.43,6.164-4.3,8.8-6.06,2.531-1.66,2.531-4.96,5.171-6.61h-1.651c-1.648.66-2.42,1.43-4.068,1.43-1.325,0-1.876-.55-2.975-0.88a9.138,9.138,0,0,0-.768,1.98,16.119,16.119,0,0,1-5.282-3.09,4.525,4.525,0,0,0-.111,1.66h-1.323c-0.661,0-1.209.88-1.65,0.88-0.663,0-1.1-1.87-1.1-2.76v-2.2c0-.33.112-1.65-0.879-1.65-0.883,0-1.761,1.87-2.2,1.87-1.43,0-6.6-4.08-7.376-5.06,0.55,0,1.1-.34,1.651-0.34-0.879-2.42-4.4-2.97-4.4-4.74,0-3.3,5.942-6.06,8.252-6.06,0.994,0,8.477-2.97,8.477-4.41,0-.77-1.762-2.31-1.873-2.64,1.1-.67.881-0.56,1.651-0.11v-1.66a8.1,8.1,0,0,0-1.651,0c-1.762,0-2.42,1.88-4.731,1.88-2.2,0-2.973-1.1-4.622-.78H445.02c-0.111-1.65-1.433-2.09-1.433-3.08a4.153,4.153,0,0,1,.33-1.1,3.294,3.294,0,0,1-3.3-1.77c2.752-1.65,7.268-3.08,9.908-4.85H452.5c0,3.53,1.762,2.54,4.074,2.54,1.54,0,1.761.33,3.08,0-1.1-3.53-3.412-3.75-6.6-5.29-0.879-.44-2.2-3.75-3.3-4.41-1.318-.78-5.832-1.65-5.832-2.42,0,0,1.541-2.76,1.651-3.09h6.054a29.606,29.606,0,0,1,14.087-10.47c1.539-.44,2.529.33,4.071-0.22,1.762-.66,2.861-3.09,4.735-3.09,1.427,0,1.979,1.22,3.407,1.66a8.642,8.642,0,0,0-.989,1.43,2.835,2.835,0,0,0,2.751-1.43c1.211,0.44,1.542.77,2.535,1.1h5.5a24.591,24.591,0,0,0,3.3,2.2H499.5c2.2,2.21,9.022,2.76,12.434,2.76,1.98,0,3.192-.77,5.174-0.77,3.19,0,4.182,1.32,6.935,2.2v-0.11Zm24.431,69c-1.763-.34-1.1-0.89-2.423,0,0-2.65.549-2.65,2.862-2.21-0.331,2.97,2.641,3.31,2.641,5.73a0.888,0.888,0,0,1-.878,1.1c-0.991,0-2.2-2.31-2.2-2.42C548.47,1193.35,548.141,1192.46,548.47,1191.92Zm-6.825-6.4c0,0.33.883,0.11,1.1,0-0.217,1.54.884,3.09-.217,4.19a5.662,5.662,0,0,1-1.763-4.41,3.418,3.418,0,0,1-2.97-3.3,1.208,1.208,0,0,1,1.319-1.11c1.982,0,.99.88,2.531,0C541.645,1183.75,541.1,1183.75,541.645,1185.52Zm102.9-63.37c-0.88,0-1.432.33-1.432,1.1,0,0.89,1.212.89,1.652,0.89a2.142,2.142,0,0,0,1.1,1.54c-0.989,2.09-3.521,1.98-6.27,1.98-4.293,0-5.833-3.3-9.024-3.3-1.983,0-1.211,1.21-2.863,1.98-2.859,1.43-5.611.55-7.925,2.2h-9.9c-1.875,0-.663-1.76-1.984-2.75-1.209-.89-4.509-0.55-6.051-0.55-2.423,0-4.4-2.54-5.175-3.86,2.641-1.99,6.056-2.54,10.677-2.54a33.9,33.9,0,0,0,3.632-.22,5.61,5.61,0,0,0-2.75-1.1H602.4c-2.425,0-8.478,1.1-8.478-1.98,0-2.43,3.194-1.55,4.4-2.32-1.76-.44-2.419-0.11-3.852-0.11-1.208,0-3.3-1.65-3.3-2.2,0-5.4,10.018-9.37,13.98-9.37,1.541,0,1.43,3.2,1.869,3.86,0.881-.55,1.653-1.99,3.413-1.99,3.082,0,4.181,1.33,4.954,3.31,1.209-.22,2.089-0.44,3.3-0.77a7.532,7.532,0,0,0-.552-1.99h2.418a6.383,6.383,0,0,1,3.633,3.09c0.663,1.33-.108,4.08,1.872,4.08,0.88,0,.88-0.45,1.431-0.88a30.848,30.848,0,0,1-2.534-7.6c0-.89,1.1-1.44,1.983-1.44,1.981,0,1.319.88,3.081,0a3.775,3.775,0,0,1-.109-1.1c0-1.1,1.542-1.87,3.3-1.87,1.982,0,3.852.77,3.852,2.42s-2.419,2.64-2.419,3.64c0,3.96,2.971,6.5,2.971,9.36,0,3.53,9.244,5.95,11.334,7.61C646.965,1122.59,646.526,1122.15,644.546,1122.15Zm-67.685-8.49c-0.55,0-1.32-1.65-1.646-2.2-0.883-1.21-5.284-.88-5.284-2.21,0-3.74,5.5-6.83,5.5-10.8,0-.88-1.539-2.64-1.65-3.85,2.751-1.11,3.962,0,6.6,0,1.323,0,2.423-1.33,4.4-.77,2.42,0.65,3.521,1.98,5.941,2.2,0.989,0.99,2.313-.33,3.74-0.33,2.313,0,7.7,2.2,7.7,4.74,0,1.21-5.831,2.1-6.93,2.42-3.414,1.1-8.256,5.73-8.256,8.27,0,0.88-7.592,3.63-8.475,3.63C577.743,1114.76,577.417,1113.66,576.861,1113.66Zm31.917-19.06c-1.322,0-3.08-1-3.08-1.66,0-1.65,1.65-1.32,3.08-1.32-0.66-.88-1.651-1.43-1.869-2.54a1.542,1.542,0,0,0-1.211,1.44c-1.873.22-3.3,0.77-4.623,0.77-1.43,0-3.08-.77-3.852-0.77a1.7,1.7,0,0,1-1.651-1.66c0-1.1.437-.88,0-1.64,1.1-.23,1.651-1.11,2.749-1.11,2.2,0,3.3.99,4.953,1.11a20.734,20.734,0,0,1-4.953-1.44v-1.65a9.377,9.377,0,0,1,1.877,0c0.439,0,3.849.66,4.949,0.77-2.091-.44-3.962-0.22-5.5-1.21a2.813,2.813,0,0,1,2.2-1.22c1.428,0,1.761.45,2.753,0.33-1.325.12-3.3-.1-3.3-1.43a12.815,12.815,0,0,1,3.629,0,1.894,1.894,0,0,1,1.869,1.66h2.534c3.3,0,5.611,4.19,10.453,4.19a2.192,2.192,0,0,0,2.423-1.44,4.728,4.728,0,0,1-2.2-.33,1.666,1.666,0,0,1,1.1-.44v-1.43c-0.771-.12-2.751-0.66-2.751-1.65,0-1.77,2.862-2.65,3.963-3.53a3.757,3.757,0,0,0,2.09.77,5.581,5.581,0,0,0,0,1.43,4.79,4.79,0,0,0,4.182,4.08c0.99,0,1.543-1.32,2.972-1.32a2.847,2.847,0,0,1,2.532,2.75c0,1.54-2.64,4.85-3.632,5.18-0.659.22-7.154-.55-7.154-0.22,0,0.22-7.045,1.77-7.372,1.87A18.307,18.307,0,0,1,608.778,1094.6Zm-16.837-6.62c-0.882,0-1.873-.55-1.873-1.32,0-1.76,4.074-2.64,5.176-2.53C595.02,1085.67,593.37,1087.98,591.941,1087.98Zm13.536-7.93a1.444,1.444,0,0,1-1.43-1.43h3.85v1.43h-2.42Zm-4.4-4.52a1.994,1.994,0,0,1-1.43,1.76c0.111,1.11.878,1.33,0.878,2.21l-4.731,3.53c-1.872,0-1.761-2.54-2.75-3.09-0.224,1.88-1.875,3.64-3.742,3.42-0.222,1.2-1.1,2.42-2.312,2.42-0.881,0-1.652-1.22-1.87-1.65-1.321.66-1.982,0-3.084,0-0.662,0-.989.77-1.87,0.88-0.218-.77-1.1-1.32-1.1-1.65a11.684,11.684,0,0,1,2.42-1.99c1.763-.88,3.414-1.1,5.283-2.2,2.091-1.22,2.641-4.08,5.723-4.08a13.563,13.563,0,0,1,1.978.22S601.075,1073.55,601.075,1075.53Zm12.323-5.95c-1.318,0-1.649-.88-2.749-0.88-0.881,0-1.32.77-2.2,0.88,0-1.44,6.6-3.86,8.037-3.86,2.308,0,4.179,1.33,4.618,2.75a5.9,5.9,0,0,1-2.969,1.11H613.4Zm4.736,2.97c0.218,2.32-3.413,3.31-5.834,3.31-1.651,0-3.522-1.98-3.522-2.97,0-2.55,6.714-2.76,9.023-2.76a2.192,2.192,0,0,1,1.981,1.1,7.689,7.689,0,0,1-4.73,1.32h3.082Zm-10.895-.22c-0.444.67-.774,1.32-1.541,1.32a2.614,2.614,0,0,1-2.2-1.64C603.494,1069.25,606.577,1072.01,607.239,1072.33Zm53.485,31.42c0,1.53-.33.55-0.33,1.65,0.439,0.11,1.87.33,2.531,0.55-0.527,6.01-.88,4.41-4.4,5.72-0.993.34-1.212,1.66-2.2,1.66-1.538,0-1.762-1.21-2.422-1.87-3.081-3.08-6.492-2.65-9.682-5.84v-1.87c1.429,0,3.08,1.32,4.949,1.32h1.652v-2.98c-1.43-.22-3.521,0-3.521-1.43,0-.33.662-0.55,0.77-0.88,1.762-1.76,4.184-1.33,6.6-1.33h4.4a1.421,1.421,0,0,1,1.1,1.11c0,2.2-2.751,3.09-3.523,4.08C657.53,1103.52,660.724,1102.54,660.724,1103.75Zm-22.23-21.28a3.224,3.224,0,0,1-1.1-2.2h1.319c3.193,0,4.842,5.62,8.253,4.63a9.769,9.769,0,0,1-2.2-1.87v-1.33c2.423,0,3.3,2.43,6.052,2.43v-2.43c-1.87,0-3.411,0-3.853-1.54a4.053,4.053,0,0,1,1.983-.11c1.762,0,2.862,1.1,4.951,1.1,0.884,0,1.323-.88,2.2-0.88,1.978,0,2.2,1.1,2.2,2.76,0,2.52-1.321,3.85-.881,6.94a16.324,16.324,0,0,1-4.4.55c-0.658,0-3.521.44-3.521-.55a1.341,1.341,0,0,1,.77-1.11,1.908,1.908,0,0,1,0-1.1c0-.99,2.093-0.99,2.751-1.65a2.613,2.613,0,0,0-1.32-.33c-1.982,0-5.835,1.1-8.033,1.1a1.341,1.341,0,0,1-1.323-1.33h-1.651l-0.327-1.09c-1.1.33-1.871-.44-2.751-1.1v-1.99Zm24.431,46.84c-1.43,0-9.574-2.97-9.574-3.31,0-.88,1.98-0.43,2.421-0.54,1.32-.45.879-3.53,3.081-3.53,1.651,0,6.162,4.07,6.825,5.62C664.577,1128.21,664.134,1129.31,662.925,1129.31Zm18.488-30.53a12.641,12.641,0,0,1-1.981,1.66c-1.431,1.98-2.97,4.41-6.271,4.41-2.422,0-2.422-1.44-3.084.77h1.431c-0.331,1.98-1.208,2.31-2.53,3.63h-2.2a25.32,25.32,0,0,1,.109-3.3c-1.758-1.77-.989-3.09-1.758-5.29v-1.88h2.527a1.832,1.832,0,0,1,0-1.1c0-.11.662-1.65,2.973-1.65,3.744,0,6.822,1.32,10.785,1.32A6.274,6.274,0,0,0,681.413,1098.78ZM637.5,1075.64a1.541,1.541,0,0,1-1.539,1.32c-1.213,0-3.854-2.97-3.854-4.41C634.973,1072.55,635.192,1074.87,637.5,1075.64Zm0.992,11.79a3.908,3.908,0,0,1,.771,1.65,1.373,1.373,0,0,1-1.651,1.44,16.329,16.329,0,0,0-2.2-.11C635.851,1088.54,636.951,1087.98,638.494,1087.43Zm8.471-17.85c-1.98,0-3.19-.66-5.168-0.44-0.55-1-1.981-.44-3.633-0.44-1.541,0-1.982.11-2.972-.88,0.99-1,1.98-.89,3.3-1.33a1.386,1.386,0,0,1,0-1.32c-2.421,0-2.974.66-3.851,0a2.008,2.008,0,0,0,.767-1.1c-1.539,0-1.869-.33-1.869-1.65,1.321-.22,2.2-0.89,3.521-0.89,2.311,0,2.86,1.99,4.185,1.99,0.878,0,1.32-.88,2.2-0.88,2.2,0,2.094,2.53,3.3,2.53,0.661,0,.99-0.88,1.652-0.88,1.539,0,2.75,1.98,3.3,2.53-0.219.33-.659,0.78-0.881,1.11,0.881,0.88,3.081,1.76,3.081,2.97,0,1.11-1.1,1.43-1.98,1.43C649.279,1072.33,649.5,1069.58,646.965,1069.58Zm-3.411,2.97c-1.981,0,.551-1.65.992-1.65,1.211,0,1.541.55,2.531,0.88C646.526,1072.55,645.206,1072.55,643.554,1072.55Zm71.647,15.99a2.767,2.767,0,0,0-1.1,1.54,3.6,3.6,0,0,0,1.431.11c-0.329,3.86-5.282,3.86-9.134,3.86a2.109,2.109,0,0,1-2.2-1.66c-1.539.23-1.762,0.77-2.752,1.44h-8.8c-2.311.54-5.725,0.22-5.5-1.66h-1.322c-0.441.56-2.092,1.88-3.083,1.88-2.42,0-7.921-2.76-7.921-4.97a2.505,2.505,0,0,1,1.319-1.76c-1.981-1.98-2.533-3.74-4.4-5.62a3.053,3.053,0,0,1-2.2,1.1c-1.21,0-7.92-2.86-7.92-3.85,0-1.66,1.977-1.66,3.3-1.66,4.954,0,5.834,3.86,9.574,3.86a2.316,2.316,0,0,0,2.2-.88h1.982c-0.882,2.53,4.184,1.87,5.174,3.31h-4.4c0.66,2.97,3.414,1.32,4.953,2.53-0.219.22-.769,0.22-0.769,0.55,0,1.55,1.32.88,1.759,0.56a30.172,30.172,0,0,0,7.594,1.32c6.054,0,8.034-2.76,13.757-2.76,4.4,0,7.264.22,8.8,3.08a3.26,3.26,0,0,1-1.1.22Zm-51.4.32c1.21,0,.772-2.53,3.3-2.53,1.983,0,4.623,2.21,4.623,3.64,0,1.87-.659,3.52-2.2,3.52-0.77,0-7.153-2.97-7.153-2.97A1.891,1.891,0,0,1,663.805,1088.86Zm6.823-16.31c1.211,0,.329.22,1.431,0v1.44a1.453,1.453,0,0,1-1.651,1.1c-0.549,0-6.932-1.21-6.932-1.21C664.577,1072.77,668.537,1072.55,670.628,1072.55Zm-11.225-1.32a1.583,1.583,0,0,1,1.1-1.1c-1.321-1.32-3.632-1.99-3.632-4.19,0-1.1,1.432-1.54,2.531-1.65,0.33,0.88,2.642,1.65,3.854,1.65,0,2.65,3.848.22,3.848,2.53a7.7,7.7,0,0,0,0,2.76C663.257,1072.12,659.4,1072.55,659.4,1071.23Zm-2.531-14.32v2.2H655c-0.661-.66-1.982-0.88-1.982-2.2C654.451,1056.8,656.1,1056.91,656.872,1056.91Zm30.043-.56h1.322v-1.43l-0.55-.77h1.1c1.54,0,1.427.55,1.427,1.87,0,0.78,1.323.89,1.323,1.66s-0.772.99-.772,1.65c0,0.99,1.651,0,1.873,0,1.1,0,3.961,1.32,5.393,1.43,0,0.77.22,1.21-.111,1.66-0.439.66-1.652,0.43-2.533,0.54-2.2.23-3.739,3.53-5.173,3.53s-1.427-.99-1.759-2.2c-0.55.55-.77,1.1-1.319,1.65a14.705,14.705,0,0,1,1.426,2.2h-1.977v1.44c-0.993.11-2.971-1.33-3.964-1.98,0,1.98-.99,2.53-2.64,2.53-1.758,0-4.184-.44-4.4-1.99a2.2,2.2,0,0,0,1.433-.77c-1.873,0-4.954-1.1-4.954-2.75,0-2.09,6.825-1.88,8.363-2.2a16.028,16.028,0,0,0-4.51-.89c-1.652,0-1.983.89-3.3,0.89-1.1,0-1.207-.78-1.539-1.43-1.1.43-1.43,0.87-2.312,0.87-0.771,0-.882-0.44-0.882-1.1,1.1-.44,1.874-0.55,2.533-1.43-3.741,0-6.053-.33-6.381-3.52h1.651a7.436,7.436,0,0,0,3.3,1.1,1.994,1.994,0,0,0,.99-0.89c-1.431-.44-4.84-1.21-4.84-2.42s1.539-1.1,2.527-1.1c1.544,0,2.094.77,2.973,0.77,0.661,0,.88-0.77,1.211-1.11-1.1-.66-2.42,0-3.082,0-0.44,0-1.432-1.65-1.432-1.76,1.324-.77,2.2-1.43,4.183-0.99h1.872c-1.321-.66-3.192-0.77-3.3-2.31a24.174,24.174,0,0,1,6.936,1.21c2.2,0.88,1.759,4.08,3.52,4.74,1.653,0.66,2.752-.44,4.4.22S685.925,1055.36,686.915,1056.35Zm6.273,96.44a2.021,2.021,0,0,0,1.1-1.44v-1.65c0-1.87.549-6.28,3.632-6.61a15.77,15.77,0,0,0,1.651,3.09,3.487,3.487,0,0,1,.99-0.89c2.311,2.87,5.833,1.77,7.816,4.41,0.551,0.78.219,1.54,0.769,1.99,1.759,1.32,3.742.77,4.731,2.09a6.255,6.255,0,0,1-3.631,1.21h-2.97a48.188,48.188,0,0,0-4.183-2.76c0,2.43-3.634,4.75-5.173,4.09-0.331.55-.331,0.88-0.882,0.88-1.32,0-.989-1.11-0.77-2.21a13.653,13.653,0,0,0-4.731,0C691.65,1153.12,692.969,1153.34,693.188,1152.79Zm36.87-19.29c0,1.43-2.752,2.43-4.073,2.43a2.539,2.539,0,0,1-2.751-2.43C723.234,1129.1,730.058,1129.87,730.058,1133.5ZM705.3,1157.97c2.2-.11,1.758-0.11,3.084.44-0.993,1.32-3.745,3.52-5.5,3.74v-1.43C703.756,1159.62,705.185,1158.63,705.3,1157.97Zm11.886-53.12c-2.2,0-4.071-.55-3.3-2.43-0.989-.55-2.2-1.1-2.2-2.31a1.747,1.747,0,0,1,1.874-1.66c2.421,0,3.193.89,5.5,0.89,2.973,0,5.5,2.42,7.486,3.41a2.207,2.207,0,0,1-1.982,1.77c-1.432,0-2.091-.77-3.3-0.77S719.051,1104.85,717.181,1104.85Zm-0.549,57.08c-0.66.89-.883,2.43-1.983,2.43a11.657,11.657,0,0,1-1.649-1.65C713,1160.72,715.53,1160.61,716.632,1161.93Zm15.959-28.98c-0.774,0-1.433-.22-1.433-0.88a2.807,2.807,0,0,1,1.433-1.1c0.989,0,1.869,1.32,2.2,1.76A5.486,5.486,0,0,1,732.591,1132.95Zm-15.742-5.84c-1.319,0,1.213-2.54,2.534-2.54C719.051,1125.9,718.173,1127.11,716.849,1127.11Zm50.4,17.08c0,1.22-.219,3.09-1.429,3.09-5.5,0-5.723-7.5-11-7.5-0.663,0-2.092,1.22-2.2,1.22a2.27,2.27,0,0,0,2.2.21v1.33a1.738,1.738,0,0,1-1.65,0v1.65H754.6c0.219,1.43,1.54,3.86,2.421,4.19,2.089,0.77,2.86-.55,3.079,1.32h1.874a5.8,5.8,0,0,0,0,2.21c0,0.77,1.978,1.32,1.978,2.53,0,1.1-1.209,3.2-1.652,4.41-1.978-.22-9.025-2.86-10.232-4.41h-1.651c1.871,2.31,8.033,4.63,8.033,7.71a1.328,1.328,0,0,1-1.1,1.33c-0.551,0-.773-1.21-1.1-1.33-3.191-1.54-5.282-.87-8.032-2.53-2.64-1.54-9.245-1.43-7.374-4.96-3.629-1.54-5.394-3.64-8.582-5.51-0.552.77-1.214,1.66-2.2,1.66-1.1,0-.881-0.78-1.872-0.78-1.318,0-1.981,1.66-3.3,1.66-1.212,0-4.734-1.55-4.734-3.09,0-1.1,2.863-2.98,4.4-2.98h4.735a12,12,0,0,0,4.95-1.54c-0.552-.33-1.979-1.43-1.979-2.31,0-1.88,1.979-.88,2.751-1.66,0.987-.99,3.3-3.41,3.3-4.95,0-2.87-7.043-8.27-9.353-8.27-1.431,0-2.089,1.32-3.521,1.32-0.438,0-.881-1.1-0.881-1.32,0-1.1,1.982-1.32,2.641-1.43-0.991-.99-6.932-6.07-8.145-6.07-1.427,0-3.192,4.19-5.172,4.19-1.428,0-.989-1.76-0.879-2.53-3.413-.33-11.777,0-16.73,0-0.881,0-2.641-1.33-3.3-2.21h-5.282c-0.549-1.54-2.2-1.76-2.42-3.3,1.429-.56,3.08.11,4.949,0.33v-1.43c-0.989-.66-6.05-1.11-6.05-1.11s-1.65-1.98-1.65-2.97c0-3.09.55-3.75,2.2-4.96,0.877-.66.328-2.65,0.769-3.09a12.345,12.345,0,0,1,8.8-4.07s3.523,1.1,3.632,1.1c-1.1,2.31-4.734,2.53-4.734,5.73a0.94,0.94,0,0,0,.881,1.1,5.508,5.508,0,0,0,0,1.98c0,0.89-.219,1.88,1.1,1.88a3.174,3.174,0,0,0,2.2-2.21c0-1.1-1.1-1.87-1.1-2.97,0-4.19,7.375-5.51,11.778-5.51,2.859,0,4.4,3.85,4.4,6.28,0,0.44-.552,2.2,0,2.2,0.659,0,1.1-1.1,2.2-1.1,1.21,0,1.542,1.1,2.532,1.1,1.87,0,2.419-2.75,4.4-2.75,2.089,0,6.823.66,8.254,1.65,2.423,1.76,3.192,5.51,6.823,5.51h2.753c1.209,0,3.96.33,3.631,2.21,2.97,0.99,4.621,2.75,7.7,3.08v1.87h1.87c1.539,0,2.423,1.1,3.085,2.65-1.546.33-2.975,0.22-3.855,1.54a21.775,21.775,0,0,0,3.3.22,1.959,1.959,0,0,1,1.65.99c-1.76.89-2.644,0.89-3.631,2.54a5.358,5.358,0,0,0,3.079.88c0.222,2.54,3.193,3.64,5.5,3.86,0.223,1.98.77,3.86,2.422,3.86,2.422,0,2.974-1.55,3.852.55a2.752,2.752,0,0,0,1.981.55c2.091,0,2.972.77,2.972,2.54,0,1.43-1.871,1.86-3.3,1.86a5.5,5.5,0,0,1,0,1.44C769.677,1143.2,769.346,1144.19,767.253,1144.19Zm-45.118,11.8c-1.1.88-1.433,0.88-2.535,0C720.7,1154.55,720.813,1155.32,722.135,1155.99Zm-20.912-13.45c1.433-.66,1.433.77,2.2,1.76C701.993,1144.19,701.112,1143.31,701.223,1142.54ZM755.7,1035.3a3.533,3.533,0,0,1-1.983,1.22l8.8-2.53a8.635,8.635,0,0,0,1.984.88c1.21,0.32,1.21,1.21,1.869,1.86,1.319,1.33,7.153.78,7.153,2.76,0,1.43-1.982,1.1-2.751,1.65-4.4,3.31-9.8,1.33-15.626,4.19,1.1,1.1,5.5.22,8.251,0.33-2.527,2.54-8.693,4.08-12.654,5.4-4.4,1.44-6.934,5.85-10.238,8.27-1.538,1.1-3.959-.22-5.72.33-2.423.77-5.17,0.99-6.934,2.43h3.083c0.219,2.42-1.1,2.2-3.194,1.98,1.321,0.66,2.532,1.1,3.194,2.65-2.313,1.1-3.083,3.74-4.954,5.06h-5.5c0.219,0.77.77,0.99,0.77,1.66,0,3.52-4.621,1.43-4.621,5.18h2.751c0.329,0,1.649-.11,1.649.88,0,1.87-6.273,3.86-8.8,3.86s-1.429-1.66-3.63-1.66h-8.255c-0.99,0-1.651,1.1-3.3,1.1-3.63,0-6.6-.98-10.453-2.2a1.846,1.846,0,0,1-1.32,1.1,1,1,0,0,1-1.1-.87c0-4.42,5.724-2.77,8.034-4.42-1.322-.99-3.636-1.32-3.636-3.3,0-1.55,1.652-1.1,2.754-1.1,3.521,0,4.733,1.87,6.825,3.08h1.98c-1.54-1.54-4.952-2.87-4.952-5.51H693.52a2.94,2.94,0,0,0-1.1.76h-1.651v-1.31c0.883-1.88,1.651-3.09,3.3-3.64,2.752-.88,6.054.11,6.054-2.97,0-3.53-7.483-3.53-7.483-5.51,0-1.1,1.65-.89,2.749-0.89a1.384,1.384,0,0,1-1.651-1.32,4.171,4.171,0,0,1,1.651,0c1.212,0,3.634-.44,5.834.22,2.752,0.89,3.742,4.08,6.825,3.75-0.55-.55-4.073-2.76-4.073-3.42a2.509,2.509,0,0,1,.771-1.1h5.5c2.089-.88,3.96-1.43,5.282-3.09h-1.651c-2.2,1.77-4.731,2.54-8.252,2.54-2.094,0-2.753-.88-3.853-0.88-0.881,0-1.319,1.1-2.2,1.1-2.2,0-5.062-.77-4.4-2.2h-1.433a4.144,4.144,0,0,1-2.42,1.1c-2.2,0-5.281-1.32-6.051-2.32a5.359,5.359,0,0,1,2.97-1.21c-2.093,0-4.293-.11-5.171,0,1.209-2.86,3.96-2.53,6.824-3.42a7.9,7.9,0,0,0-2.2-.22c-2.2,0-2.312,1.98-4.4,1.98a6.906,6.906,0,0,1-1.981-.87,6.456,6.456,0,0,1,3.081-1.88h-3.3a7.838,7.838,0,0,0-1.651.77h-2.419c0.658-2.76,7.812-4.07,11.006-4.07h2.421a0.956,0.956,0,0,0,.878-0.89c3.521,0,2.092-2.42,4.4-2.42,2.093,0,6.385,2.09,7.375,2.42,0.988-2.64,2.312-4.96,5.5-4.96,1.87,0,.768.99,2.2-0.22a2.513,2.513,0,0,1,2.529-1.42h12.657a1.516,1.516,0,0,1,1.321-.78c1.984,0,2.532,1.32,4.179,1.32,1.545,0,1.983-1.87,3.527-1.87,1.649,0,2.308.77,3.3,0.77h3.083C744.032,1033.43,753.5,1033.1,755.7,1035.3Zm45.339,93.24c1.54-.77,1.54-0.88,3.083-0.22,0.659-3.31,2.309-4.41,3.3-7.49-3.41-1.11-11.445-1.66-11.884-4.75,1.1-.43.987,0,1.982,0,2.309,0,3.958,1.66,6.6,1.66,1.1,0,.987-0.99,1.1-1.66-3.41-1.1-4.4-6.27-8.032-6.27-0.988,0-1.321,1.86-2.751,1.86-1.982,0-2.972-.21-2.972-1.86,0-2.43,2.42-2.21,2.42-4.74,0-1.66-1.758-1.77-2.751-1.88v-1.65c-3.082-9.48-10.785-19.07-23.11-19.07h-3.3c-1.429,0-2.091,1.44-3.521,1.44-0.99,0-1.98-.88-3.3-0.88a4.736,4.736,0,0,0-2.2.43,3.714,3.714,0,0,0,1.1.89c-0.66.66-.552,0.33-1.43,0.33-2.313,0-5.835-.99-7.154-2.65,0.991-.66,1.761-0.77,2.2-1.76-1.763-.66-3.083-1.87-4.4-1.87-2.421,0-1.76.77-3.853,0,0.223-1.55,2.425-2.21,3.3-2.21h2.753a1.858,1.858,0,0,0,1.981-.88h6.273c1.1-.77,1.1-1.21,1.43-2.42h-4.4a1.413,1.413,0,0,1-1.1,1.1h-3.852c-0.442,0-11-2.98-11-4.74,0-3.42,3.851-2.2,6.272-2.98,1.98-.65,3.193-1.87,5.283-2.53,2.972-1,6.934.66,9.354-.78a6.557,6.557,0,0,0,2.971-5.83c-1.98-.22-8.252-0.12-8.252-2.21,0-.99,1.65-1.54,2.2-1.65,3.74-1.22,8.693-3.86,10.895-6.06a4.425,4.425,0,0,0,2.86.88c3.853,0,.881-5.07,4.4-5.51,4.4-.56,6.055-1.66,10.234-1.66,3.082-.77,5.284-2.53,8.254-2.53,1.983,0,2.535,3.31,4.623,3.31,0-.78-0.551-1.44-0.551-2.21l1.1-1.1c1.212,2.1,3.083,1.87,5.283,2.75h1.652a7.126,7.126,0,0,1-.879-2.43c0-1.31,1.648-1.42,2.75-1.42,4.51,0,7.151,2.53,9.9,3.85h4.953c-1.76-.88-6.273-2.31-6.273-4.41,0-1.64,3.41-1.1,4.4-1.32-0.768-.77-1.65-0.88-2.2-1.65a20.226,20.226,0,0,1,9.356-2.2c2.641,0,4.4-.12,6.824.77h2.2v-1.32a28.127,28.127,0,0,1,4.4,0c5.286,0,9.577-3.09,15.187-3.09h15.961c6.493,0,11.335,4.19,16.507,6.39,2.973,1.21,6.824.44,9.575,1.1-0.551,3.86-8.035,3.3-11.007,4.41l-24.169,1.32c1.871,1.44,20.32-.76,22.3,0-0.219.88-5.02,5.52-4.138,5.52,2.752,0,9.312-6.28,12.944-6.28,1.979,0,2.75,1.64,2.75,3.3,0,0.99-7.111,8.48-7.44,9.59,2.861-.77,8.43-8.05,10.191-9.37h7.373a12.938,12.938,0,0,0,2.531.33c1.982-.77,2.314-1.32,4.073-2.21h5.284c0.329-1.32,1.1-1.43,2.2-1.43,1.428,0,6.6,2.43,6.6,3.86,0,1.32-2.089,2.31-2.75,2.54-3.631,1.21-5.944,4.41-10.9,4.41,1.325,0.65,1.433.65,2.313,0,0,3.08-2.971,3.08-4.952,3.52,0.77,1.54,0,.33,0,1.43,0,1.77-2.86,2.21-4.954,2.76a7.266,7.266,0,0,1,0,1.65c0,2.32-2.309,3.08-4.4,4.63-1.32.99-1.212,3.64-1.87,4.74,1.208,0.55,2.09,0,3.3,0,1.762,0,3.3,1.21,4.4,2.09a4.267,4.267,0,0,1-1.983.67c0.442,1.76,4.734,1.21,4.734,3.85s-5.722,1.66-7.706,1.66a2.1,2.1,0,0,0-2.2,1.65c0,1.88,1.979,1.88,3.524,1.88,0,2.42,1.646,3.08,1.646,4.73,0,0.88-.55,1.77,0,2.42-1.759,0-3.522,0-3.522,1.44,0,1.87,3.084,1.76,4.4,2.21-0.661,1.75-2.861,2.75-4.954,2.97a1.845,1.845,0,0,0,1.1,1.65c-0.768,3.31-5.172,1.88-6.051,4.19a10.576,10.576,0,0,1-3.3-2.53h-1.651c1.1,2.97,6.053,1.98,6.053,4.95,0,1.32-.331,3.09-1.65,3.09-1.984,0-5.392-2.87-6.053-4.96a5.489,5.489,0,0,1-1.432,0v1.66c3.96,3.96,11.007,5.83,11.007,12.12,0,1.21-1.764,1.32-2.973,1.32-5.171,0-4.074-5.52-8.586-5.52a2.723,2.723,0,0,1-1.647,0c0,1.55,1.1,1.89,1.1,2.77,0,0.99-1.87,1.32-2.421,1.43,0,3.3,9.795,2.86,12.106,3.63-1.649,1.33-2.75,1.44-4.733,2.1-3.632,1.21-4.732,4.3-7.924,5.29-3.959,1.32-7.153.99-11.333,2.75h-5.173c-1.1.66-2.2,1-2.2,1.88l-2.751,1.98c-2.088,1.66-2.2,3.86-3.853,5.51-2.2,2.2-5.942,1.66-8.251,3.31h-1.652v-2.21c-1.649.67-1.21,1.77-2.2,2.76-2.313,2.31-8.253,1.32-8.253,4.96,0,0.33.22,0.77,0.22,1.1a2.332,2.332,0,0,0-.771,1.32c0,0.77,1.319,1.33,1.319,2.54,0,3.74-5.172,2.53-5.172,5.73a55.179,55.179,0,0,0,0,6.06c-2.53,1.22-1.207,6.94-4.179,6.94a1.3,1.3,0,0,1-1.324-1.1c-1.322.11-1.542,0.77-2.2,0.77-2.752,0-2.532-4.96-5.283-4.96-1.54,0-3.3,1.33-4.623,1.44-0.77-2.54-1.871-1.77-3.633-3.09-0.658-.44-0.438-1.98-0.769-2.2-2.2-1.77-6.383-6.73-6.383-9.92,0-1.44.882-1.33,1.651-2.1-1.651-2.09-2.2.66-4.072-.33-0.441-.44-0.772-2.53-1.1-3.63-0.663-2.1-3.634-3.31-3.634-6.29,0-1.1.771-1.65,1.1-2.75a1.8,1.8,0,0,0-2.2,0v-2.54c1.54-2.09,2.2-4.29,4.4-6.06v-0.22Zm-5.173-4.18c-0.99-.11-2.2-2.54-2.2-3.87a2.236,2.236,0,0,1,2.42-2.2c2.864,0,3.743,2.98,6.605,3.86-0.22,1.87-2.533,2.21-4.4,2.21h-2.423Zm111.7-33.84a1.866,1.866,0,0,1-1.431-1.66c0-.65.771-1.1,1.1-1.43h1.983v1.43H911.1C910.543,1089.2,908.676,1090.52,907.574,1090.52ZM781.233,1226.19a1.406,1.406,0,0,1-1.1-1.11c0-.43,1.98-1.98,1.98-2.09v-0.66a0.978,0.978,0,0,1-.879-0.55c3.079-1.54,4.292-6.51,5.942-9.04,0.879-1.43,1.54-3.3,3.3-3.3a1.1,1.1,0,0,1,.769,1.1c0,2.43-2.313,3.63-2.972,5.62v0.99c0.882-.22.882-0.89,1.652-0.89a2.422,2.422,0,0,1,1.758.56l-0.55.55v1h1.984v0.55l1.319-.45a5.152,5.152,0,0,0,3.192,0c0,0.99-.109,1.99-0.109,3.64a1.972,1.972,0,0,1,1.21-.33c-0.111.99-1.1,1.21-1.1,1.66,0,0.54.771,0.99,0.771,1.75,1.1,0,.77-0.22,1.429-0.65,0,1.32.769,1.21,0.769,2.31,0,1.32-.658,2.64-1.759,2.64a1.2,1.2,0,0,1-.992-1.32c-0.327,0-.548-0.22-0.879-0.22-0.882,0-.219-2.09-1.1-2.98-0.881,1.33-1.87,2.98-3.191,2.98-0.221,0-.662.22-0.662,0,0-1.1.884-1.1,1.213-1.76-1.1,0-2.532.66-3.082-.44a5.585,5.585,0,0,1-2.2.55c-1.43,0-2.089-.77-3.3-0.77C782.993,1225.53,782.553,1226.19,781.233,1226.19Zm632.587-137.87c-0.88,0-1.43,1.1-2.75,1.1-0.77,0-1.21-1.1-1.98-1.1-0.88,0-1.32.76-2.2,0.76-0.66,0-1.32.89-2.42,0.89a2.327,2.327,0,0,1-1.99-1.11c-0.77.67-1.32,1.66-2.41,1.66-2.87,0-5.51-2.31-5.51-4.97,0-2.52,2.64-4.4,4.95-4.4,3.42,0,3.64,3.53,6.61,3.53,0-1.65.55-2.98,1.86-2.98,1.99,0,8.48,2.32,10.79,2.98-0.44,1.54-1.98,2.75-1.98,3.64h-2.97ZM660.283,1304.77a5.153,5.153,0,0,1,.441,1.77c0,1.98-.769,2.75-1.1,4.4v6.17c-0.219.88,0.661,1.77,0.882,2.21,0.441,0.99-.11,1.65.329,2.64a17.409,17.409,0,0,0,2.643,3.2c1.98,1.98,1.98,3.86,4.841,4.74,0.991,0.33.991,1.32,1.871,1.32,2.091,0,3.854-1.55,6.054-1.55,1.208,0,1.65.67,2.09,0.67,0.882,0,1.431-1.32,1.54-1.76,0.441-1.33,2.314-2.76,2.314-4.42,0-3.19,3.63-4.29,6.6-4.29a5.439,5.439,0,0,1,2.2.33,16.631,16.631,0,0,0,2.528.22v0.99c0,1.55-1.87,3.53-1.87,5.63a6.012,6.012,0,0,1-1.321,3.63v-0.77h-0.882v5.29c0,1.1-1.321,1.54-1.98,2.2v0.56a1.243,1.243,0,0,0,1.322,1.2c3.629,0,6.6-.66,10.452-0.66,2.641,0,3.3,1.88,5.284,2.32v1.65c0,1-.111,3.75-0.769,4.85v6.72c0,2.43,2.31,3.42,4.071,4.3,1.209,0.56,1.209,2.65,3.08,2.65,2.864,0,4.294-2.21,6.936-2.21,3.079,0,4.43,2.21,6.189,3.53-0.136.28-2.474,2.76-2.752,2.62-0.219-.22-1.237-0.53-1.237-0.85a2.9,2.9,0,0,1,.659-1.11c-1.209-.55-1.54-1.98-2.75-1.98-0.771,0-3.853,2.2-3.853,2.86a1.592,1.592,0,0,0,.88.99,1.684,1.684,0,0,1-1.651,1.66c-1.761,0-2.86-2.1-3.741-2.98-0.768-.77-2.534-0.11-3.3-0.11a0.855,0.855,0,0,1-.551-0.66c-1.539-.33-1.539-1.44-1.978-2.31-0.331-.67-4.074-2.98-4.183-2.98a0.821,0.821,0,0,0,0,.99h-1.1c-1.653-1.1-.552-2.64-1.1-4.3a3.7,3.7,0,0,0-1.432-1.87c-1.758-1.76-3.629-2.75-4.289-5.4h-0.658c-0.776,0-1.325.55-2.094,0.55-2.092,0-3.193-1.21-4.623-1.87-2.089-1-3.63-.44-5.832-1.55-3.412-1.65-3.851-4.18-6.823-5.62h-0.663a4.433,4.433,0,0,0-2.42-.88c-1.981,0-2.31,2.21-4.182,2.21a5.014,5.014,0,0,1-2.2-1,5,5,0,0,0-2.533-.22c-1.318,0-5.063-2.64-6.159-3.19-1.212-.55-1.983.11-3.195-0.23-1.54-.43-1.87-1.75-3.41-2.53-1.432-.66-2.2-0.44-3.634-1.1a3.828,3.828,0,0,1-1.209-.77c-1.323-1.33-4.732-2.09-5.064-3.53-0.988,0-1.65-1.21-1.65-2.2,0-1.21,1.1-1.88,1.1-3.08,0-1.44-.881-1.77-1.1-2.54-1.32-3.97-5.062-7.17-7.483-9.59-1.1-1.1-2.864-1.54-3.963-2.65-0.878-.87-0.11-1.98-0.658-3.19-0.992-1.98-4.4-2.2-4.4-4.85-0.992-.22-0.881-0.33-1.209,0-1.433-1.43-2.532-2.64-3.743-3.86-0.989-.99-0.659-2.87-1.649-3.85-0.992-1-.774-3.43-1.651-3.87-1.872-.87-3.632-0.76-5.064-2.2a2.319,2.319,0,0,0-.22,1.44c0,2.31,1.089,3.74,1.972,5.61,0.769,1.65,2.211,1.66,3.312,2.76,1.539,1.54,1.759,2.65,2.311,4.52,0.768,2.53,2.97,3.75,3.74,6.06,0.88,2.65,1.542,5.51,3.52,6.84,0.883-.89,2.2.98,2.2,1.86,0,0.56-.438,1.67-0.77,1.67a8.244,8.244,0,0,1-1.8-2.36c-1.977,0-3.041-2.6-4.253-3.38a2.464,2.464,0,0,1-1.1-.99v-2.87c-1.208-1.21-2.09-2.42-3.19-3.52-1.542-1.55-3.961-1.21-5.062-2.87,0.55,0,3.152.41,2.189-.97-1.627-2.33-3.439-4.68-5.362-5.93-1.312-.83-1.229-3.9-1.89-5.23-0.991-1.97-1.979-2.64-2.754-5.18v-0.76h7.156l11.772,3.85h9.139v-1.32h2.2c3.743,0.99,5.835,1.44,7.706,4.63,0.879,1.54,2.64,5.29,4.954,5.29,2.089,0,1.428-3.08,3.848-3.08,6.492,0,6.385,8.04,9.906,11.57,0.882,0.88,3.632,1.43,5.5,1.65,0-.33-0.549-0.77-0.549-1.11h0Zm48.423-101.61c1.874,0,3.745.32,3.745,1.87a0.925,0.925,0,0,1-.552,0,5.328,5.328,0,0,1-3.193-1.1A0.917,0.917,0,0,0,708.706,1203.16Zm-145.379,11.01a3.842,3.842,0,0,1,1.542-.54c1.21,0,2.2,1.32,2.967,1.54,4.735,1.54,7.379,4.19,10.238,7.05v0.99h-0.992c-2.53,0-6.381-2.97-8.143-4.07a2.133,2.133,0,0,1,1.1-1.1c-2.2,0-5.283-1.11-5.719-2.43a2,2,0,0,0,1.1-.99c-0.551-.11-1.653-0.45-1.653-0.45h-0.44ZM549.9,1202.61c-0.44,0-.878-1.33-1.322-1.98v-0.89c0.992,0,1.543.66,2.533,0.77,0,0.12-1.32,1.32-.662,1.32a1.9,1.9,0,0,0,1.432-1.43,8.9,8.9,0,0,1,0,2.43c0,0.54.551,0.76,0.551,1.32,0,0.44-.551.66-0.551,1.1s1.982,2.09.88,2.09c-0.88,0-1.541-1.21-1.541-2.09a3.493,3.493,0,0,1,.44-1.21C550.779,1203.82,550.56,1202.61,549.9,1202.61Zm-63.281-19.51h1.32v1.32a20.025,20.025,0,0,0-4.292,3.09c-0.989-.77-1.54-0.89-2.311-1.44v-1.32C483.208,1184.2,484.638,1183.1,486.619,1183.1Zm517.471,79.01v0.78c0.33,0.55,1.21.44,1.54,0.55,1.76,0.55,3.19,2.43,5.06,2.87,0,0.33.56,0.44,0.89,0.44a0.815,0.815,0,0,0,.65-0.77c0-.89-0.54-0.99-0.54-1.76a3.121,3.121,0,0,1,.54-1.22l0.45-1.27c-1.66-.34-2.31.72-3.75,0.72C1007.39,1262.45,1006.4,1261.01,1004.09,1262.11Zm-11.225-17.19c0.772,0,1.21-.99,1.761-1.1a1.275,1.275,0,0,0,.441,1.22c-0.334,1.32-.66,3.74-0.992,4.4-1.1-.22-1.428-3.41-1.981-4.29C992.315,1245.15,992.647,1244.92,992.865,1244.92Zm-0.441,9.04c0-.88-0.988-1.43-1.1-2.31,1.21-.34,1.322-1.44,2.312-1.44,0.77,0,1.1.66,1.43,0.66,0.96,1.76.684,2.75,0.684,4.52,0,1.54-2.007,3.09-2.886,3.09-1.1,0-1.1-1.43-1.1-2.31C991.875,1255.28,992.424,1254.73,992.424,1253.96Zm-16.506,2.43a0.871,0.871,0,0,1-.881.55,3.671,3.671,0,0,1-1.432-.99,5.668,5.668,0,0,1,1.764-.77A12.916,12.916,0,0,1,975.918,1256.39Zm23-62.05c-1.317,0-2.528-.33-2.528-1.43v-1.11h2.093c0,1.32.767,1.11,0.767,2.21a2.608,2.608,0,0,1-.332,1.21v-0.88Zm1.655,0.77a1.885,1.885,0,0,0,1.54-1.43c-1.1-.23-2.31-1.1-2.31-1.76,0-.45,1.32-3.31,2.09-3.31,2.2,0,2.31.99,2.86,2.86-1.87.55-.99,4.41-3.41,4.41a2.5,2.5,0,0,1-1.54-.66,2.57,2.57,0,0,1,.55-0.55Zm22.78-13.11c0,1.21-.88,1.75-1.65,2.75-0.33-.44,0-0.88,0-1.43a2.821,2.821,0,0,1,2.53-2.76C1024.01,1181.01,1023.35,1181.44,1023.35,1182Zm12.65-4.41v1.32a3.185,3.185,0,0,1-1.86,1.11c-0.99,0-1.11-1-1.11-1.66,0.88-.12,1.54-0.77,2.43-0.89a2.316,2.316,0,0,1-.77-1.32,2.011,2.011,0,0,1,.99-1.1,3.487,3.487,0,0,0,1.21,1.1A2.876,2.876,0,0,1,1036,1177.59Zm10.79,94.78c-1.43.77-1.98,0.22-2.75,0.22a10.567,10.567,0,0,1-4.18-.88A15.725,15.725,0,0,1,1046.79,1272.37Zm20.91,1.32a0.733,0.733,0,0,1-.77-0.55,0.707,0.707,0,0,1-.55-0.55,30.717,30.717,0,0,1,6.39-2.2c-0.23,1.1-.78.65-1.43,0.99-0.34.11-.11,0.76-0.22,1.1C1070.78,1273.14,1068.69,1273.69,1067.7,1273.69Zm63.94,74.95a1.3,1.3,0,0,0,1.21.76,2.694,2.694,0,0,0,1.98-1.32A8.561,8.561,0,0,0,1131.64,1348.64Zm-15.51-225.39c0.55,0,.77-1.1,1.31-1.1,1.55,0,2.32,1.43,3.86,1.65v1.44c-1.43.76-2.75,1.87-4.62,1.87-1.33,0-1.98-.22-1.98-1.32A6.991,6.991,0,0,1,1116.13,1123.25Zm36.87-2.42c0,0.77-1.44.55-1.44,0.55-1.43,0-3.85-1.43-3.85-2.76C1147.71,1116.42,1153,1118.62,1153,1120.83Zm30.81-18.74a11.049,11.049,0,0,0,4.4-1.21c-1.1-.88-1.43-2.1-2.75-2.1-0.99,0-1.65,1.22-1.65,2.21C1183.81,1101.32,1183.48,1102.09,1183.81,1102.09Zm220.33-3.31c1.32-1.76,2.75-3.3,5.28-3.3,2.86,0,5.06,1.87,5.17,4.4h-3.3c-1.98-1.1-4.52-.87-6.61-1.64Zm19.81-13.55c0.99,0.77,12.54,2.2,12.98,2.2a1.113,1.113,0,0,1,1.11,1.11c0,1.21-3.2,1.65-4.96,1.65-2.86,0-8.03-1.33-8.03-4.08Zm-17.06,8.82a1.578,1.578,0,0,1-1.65,1.43c-1.21,0-1.32-.44-1.32-1.43C1403.92,1092.28,1406.89,1092.5,1406.89,1094.05ZM770.338,1220.13a1.407,1.407,0,0,0,1.54-.67c-2.31-1.31-4.4-3.41-7.814-2.64C765.385,1217.82,768.576,1220.13,770.338,1220.13Zm-5.284,8.59a3.036,3.036,0,0,0,2.42,1.76h3.3v0.67a1.782,1.782,0,0,1-1.319,1.21c-0.77,0-4.844-2.09-4.844-2.87A0.926,0.926,0,0,1,765.054,1228.72Zm12.658,2.87v0.77c0,0.77-1.212,1.43-2.421,1.43-1.1,0-1.763-.55-1.763-1.21s1.54-3.42,2.532-3.75c0.221,0.45.772,0.66,0.772,1.11C776.832,1230.93,775.18,1231.59,777.712,1231.59ZM443.7,1172.3c0.439-.99.77-0.78,1.651-0.78,1.32,0,1.431.78,1.652,1.88h-3.634a4.53,4.53,0,0,1-1.318-1.1H443.7Zm37.418,156.17v0.77a7.72,7.72,0,0,1-1.982.55,0.833,0.833,0,0,1-.659-0.77,7.418,7.418,0,0,0,0-1.55A3.376,3.376,0,0,1,481.116,1328.47Zm-3.3-3.86a1.646,1.646,0,0,1-.442.22c-0.549,0-.659-0.77-0.989-1.1A1.989,1.989,0,0,1,477.816,1324.61Zm-2.2-1.98a2.051,2.051,0,0,1-1.431.88,0.874,0.874,0,0,1-.554-0.88h1.985Zm-4.073-1.1a2.978,2.978,0,0,1,.991-0.23v0.66a0.593,0.593,0,0,1-.551.44,1.915,1.915,0,0,1-.992-0.76,1.893,1.893,0,0,1,.774-0.11h-0.222Zm-3.521-2.21a2.422,2.422,0,0,0,.11.88H467.36a1.082,1.082,0,0,1-.882-0.77,1.586,1.586,0,0,0,.658-0.55A1.375,1.375,0,0,0,468.021,1319.32Z" transform="translate(-440.625 -1027.91)"/>
</svg>
